<svg width="512" height="512" viewBox="0 0 512 512" fill="none" xmlns="http://www.w3.org/2000/svg">
<rect width="512" height="512" rx="256" fill="url(#paint0_linear_6954_9321)"/>
<path d="M205.864 368.026C164.244 368.026 133.42 346.151 133.42 302.969C133.42 254.247 172.199 239.759 215.381 235.781C253.307 232.088 268.222 230.241 268.222 216.179V215.327C268.222 197.429 256.432 187.06 235.835 187.06C220.92 187.06 210.267 192.031 203.591 199.844C197.341 207.514 192.511 211.918 182.852 211.065L160.551 209.219C148.477 208.224 142.085 200.27 147.341 189.332C161.261 160.355 192.369 142.884 236.119 142.884C284.699 142.884 328.733 164.759 328.733 216.747V346.861C328.733 357.94 322.767 363.906 311.688 363.906H288.392C277.312 363.906 271.347 358.509 271.347 348.707V333.651H269.642C258.989 353.963 238.108 368.026 205.864 368.026ZM223.193 326.264C249.756 326.264 268.648 308.793 268.648 285.923V262.77C261.403 267.599 239.812 270.724 226.602 272.571C205.295 275.554 191.233 283.935 191.233 300.98C191.233 317.599 204.585 326.264 223.193 326.264Z" fill="white"/>
<path d="M388.017 359.599C369.267 359.599 353.784 344.401 353.926 325.509C353.784 306.901 369.267 291.702 388.017 291.702C406.199 291.702 421.966 306.901 422.108 325.509C421.966 344.401 406.199 359.599 388.017 359.599Z" fill="white"/>
<defs>
<linearGradient id="paint0_linear_6954_9321" x1="33.2722" y1="-113.387" x2="470.152" y2="629.056" gradientUnits="userSpaceOnUse">
<stop stop-color="#9CD36E"/>
<stop offset="0.495192" stop-color="#70B934"/>
<stop offset="1" stop-color="#5EAE1B"/>
</linearGradient>
</defs>
</svg>
