<svg width="224" height="224" viewBox="0 0 224 224" fill="none" xmlns="http://www.w3.org/2000/svg">
<g clip-path="url(#clip0_6954_9223)">
<path d="M204.602 195.797L211.431 362.505L198.289 362.073L167.915 250.377L152.049 363.671L138.271 362.505L132.263 203.203L149.458 197.235L204.602 195.797Z" fill="#2A2A2A"/>
<path d="M94.2433 125.653C94.2433 125.653 94.6832 118.003 94.2289 115.204C93.7742 112.405 95.4131 109.355 93.7965 109.057C92.1799 108.759 90.8539 114.052 90.8539 114.052C90.8539 114.052 87.4387 109.402 86.6062 107.813C85.7736 106.224 83.5634 103.763 82.3529 104.281C81.1435 104.8 85.6754 112.151 85.6754 112.151C85.6754 112.151 81.2516 106.336 80.0332 106.576C78.8148 106.816 83.3566 115.042 83.3566 115.042C83.3566 115.042 78.9403 108.609 78.1543 108.407C77.3678 108.205 77.0782 109.204 78.0883 111.861C79.0989 114.517 80.8157 116.971 80.8157 116.971C80.8157 116.971 77.3738 112.683 76.7817 112.312C76.1901 111.943 75.1031 111.865 77.0162 115.642C78.9289 119.419 84.3975 126.91 88.6497 129.545L94.2438 125.652L94.2433 125.653Z" fill="#F29A53"/>
<path d="M158.012 65.5256C158.012 65.5256 156.663 63.3649 155.53 64.1992C152.638 66.3248 155.393 69.2328 157.264 69.9135L158.012 65.5262L158.012 65.5256Z" fill="#EF7A2B"/>
<path d="M157.595 57.6827L157.612 57.6864C157.61 57.4636 157.607 57.2407 157.613 57.0158C157.883 47.0717 166.487 39.3141 176.555 40.251C184.943 41.0316 191.637 47.9043 192.189 56.311C192.394 59.4319 191.769 62.3739 190.529 64.9598C188.816 68.9642 187.312 72.3884 185.74 75.2269C183.14 79.9205 182.21 85.3577 182.96 90.6706L183.55 94.8492C172.763 100.222 166.311 93.1791 166.311 93.1791L168.067 87.1855C168.069 86.1877 167.304 85.3654 166.311 85.2739C166.305 85.2737 166.299 85.2725 166.293 85.2722C153.13 84.0555 157.434 63.6225 157.595 57.6827Z" fill="#F29A53"/>
<path d="M175.176 67.2467C175.2 66.3575 175.941 65.6558 176.831 65.6796C177.72 65.7033 178.422 66.4441 178.398 67.3339C178.374 68.2231 177.633 68.9248 176.744 68.901C175.854 68.8767 175.153 68.1364 175.176 67.2467Z" fill="#080435"/>
<path d="M160.939 63.9967C160.963 63.107 161.704 62.4057 162.593 62.4295C163.483 62.4538 164.185 63.1941 164.16 64.0839C164.136 64.9736 163.395 65.6749 162.506 65.6511C161.616 65.6273 160.914 64.8865 160.939 63.9967Z" fill="#080435"/>
<path d="M181.819 62.8303C181.984 62.8447 182.154 62.8159 182.313 62.7382C182.782 62.5095 182.977 61.9442 182.748 61.4759C182.059 60.0636 179.767 57.7836 176.017 59.2669C175.533 59.4587 175.295 60.0077 175.487 60.4924C175.678 60.9771 176.228 61.2139 176.712 61.0227C179.791 59.8025 181.001 62.201 181.051 62.3039C181.202 62.6129 181.499 62.8029 181.819 62.8303Z" fill="#080435"/>
<path d="M167.003 59.336C167.168 59.3405 167.336 59.302 167.491 59.2143C167.945 58.9585 168.106 58.3827 167.85 57.9282C167.078 56.5589 164.653 54.4198 160.999 56.1244C160.526 56.3451 160.322 56.9066 160.542 57.3795C160.763 57.8523 161.325 58.0564 161.798 57.8363C164.798 56.435 166.149 58.7567 166.205 58.8563C166.374 59.1554 166.682 59.3274 167.003 59.336Z" fill="#080435"/>
<path d="M193.737 59.1844L188.725 70.7644L185.595 70.0501L184.117 54.8972L193.737 59.1844Z" fill="#080435"/>
<path d="M166.74 72.8571C168.266 73.6554 169.665 72.8588 169.681 72.8492C169.814 72.7713 169.859 72.6003 169.781 72.4666C169.703 72.3339 169.531 72.2883 169.398 72.3656C169.333 72.4028 167.776 73.2711 166.278 71.8327C166.034 71.5982 165.908 71.4098 165.907 71.2729C165.903 71.0807 166.14 70.8385 166.467 70.5041C167.222 69.7341 168.483 68.4454 168.947 65.4693C168.971 65.3156 168.866 65.1725 168.713 65.1488C168.561 65.1252 168.417 65.2299 168.394 65.3832C167.957 68.1816 166.82 69.3435 166.067 70.1123C165.66 70.5273 165.34 70.8553 165.346 71.2823C165.351 71.5863 165.518 71.8811 165.89 72.2372C166.173 72.5086 166.458 72.7101 166.74 72.8576L166.74 72.8571Z" fill="#EF7A2B"/>
<path d="M160.559 51.0376C160.559 51.0376 158.026 52.7172 157.131 63.2031C157.131 63.2031 156.602 51.4735 157.939 50.2188C159.276 48.9647 160.559 51.0376 160.559 51.0376Z" fill="#080435"/>
<path d="M185.119 69.6664C185.414 69.1142 185.914 68.7003 186.5 68.482C187.708 68.0325 189.829 67.5637 191.238 69.0514C193.306 71.2347 188.878 76.7529 184.728 73.8385C184.728 73.8385 183.553 72.5981 185.119 69.6664Z" fill="#F29A53"/>
<path d="M183.696 93.8605C183.696 93.8605 178.418 94.0932 175.049 93.8605C171.681 93.6278 166.486 92.6719 166.486 92.6719L157.173 130.494L141.653 203.844C141.653 203.844 172.969 216.163 194.689 204.317L188.788 116.977L183.696 93.8605Z" fill="#501B10"/>
<path d="M183.697 93.8682C183.697 93.8682 208.906 106.652 213.52 114.069C217.782 120.919 217.549 114.668 228.593 152.228C230.038 157.141 228.894 162.36 225.733 166.185C224.439 167.752 222.674 168.86 220.726 169.437L207.008 173.503L209.027 223.559C209.027 223.559 200.447 228.239 181.252 226.041C181.365 219.922 183.698 93.8672 183.698 93.8672L183.697 93.8682Z" fill="#9C4042"/>
<path d="M166.486 92.6719C166.486 92.6719 139.76 101.869 134.17 108.581C128.579 115.294 129.041 225.083 129.041 225.083C129.041 225.083 140.309 230.854 155.748 226.034C156.27 219.559 166.486 92.6719 166.486 92.6719Z" fill="#9C4042"/>
<path d="M186.539 38.8083C186.013 38.3338 185.075 37.9852 184.696 38.5836C184.543 38.8247 184.561 39.1334 184.6 39.416C184.712 40.2384 184.962 41.0406 185.333 41.783C182.214 38.5664 177.306 37.8194 172.839 38.1722C168.372 38.5245 163.994 39.785 159.513 39.851C157.736 39.8776 155.606 39.8874 154.657 41.3893C153.995 42.4378 154.255 43.8919 155.046 44.8459C155.838 45.7998 157.054 46.3128 158.275 46.5326C157.328 46.2027 156.188 46.539 155.573 47.3305C154.957 48.1216 154.911 49.3095 155.464 50.1461C156.309 51.4256 158.085 51.6063 159.618 51.6337C164.499 51.7214 169.384 51.5479 174.247 51.1137C173.575 51.7302 172.903 52.3472 172.231 52.9642C172.002 53.1744 171.765 53.3982 171.668 53.6934C171.535 54.0998 171.704 54.5486 171.957 54.8925C172.614 55.7818 173.786 56.1601 174.892 56.1606C175.997 56.1615 177.074 55.8436 178.152 55.5962C179.725 55.2346 181.331 55.02 182.944 54.9553C183.278 54.9422 183.622 54.9373 183.933 55.0594C184.352 55.2246 184.647 55.5954 184.957 55.9227C186.802 57.8741 189.574 58.5776 192.19 59.1929C193.002 59.3841 194.066 59.4722 194.464 58.7387C194.618 58.4545 194.619 58.1146 194.609 57.7918C194.49 53.9235 193.301 50.0934 191.21 46.8366C191.746 47.672 192.947 47.8104 193.417 46.7671C194.014 45.4396 192.333 44.4829 191.392 44.0137C190.531 43.5848 189.735 43.5325 189.066 42.7654C188.017 41.5621 187.815 39.9597 186.54 38.8087L186.539 38.8083Z" fill="#080435"/>
<path d="M171.686 76.3382L162.354 75.4297C162.354 75.4297 163.577 80.3586 166.857 79.8959C170.136 79.4333 171.686 76.3382 171.686 76.3382Z" fill="white"/>
<path d="M193.503 99.2074L186.954 119.872L191.905 122.355L182.487 159.247L183.697 93.8672L193.503 99.2074Z" fill="#C14F51"/>
<path d="M140.893 103.648C140.893 103.648 131.967 107.782 127.608 117.988C123.247 128.195 117.01 144.161 109.995 146.151C104.403 147.737 96.3759 123.682 96.3759 123.682L83.3381 127.235C83.3381 127.235 88.0138 175.519 113.075 172.951C129.005 171.319 136.566 137.11 136.566 137.11L140.893 103.648Z" fill="#9C4042"/>
<path d="M156.039 96.6132L159.686 117.982L154.44 119.761L160.712 165.015L166.486 92.6719L156.039 96.6132Z" fill="#C14F51"/>
<path d="M167.261 158.336C168.117 156.9 170.444 159.543 173.273 160.101L170.98 162.911C170.98 162.911 166.404 159.772 167.261 158.336Z" fill="#F29A53"/>
<path d="M174.406 179.398L165.282 147.323C164.934 146.101 163.818 145.258 162.547 145.258H149.673C147.806 145.258 146.446 147.026 146.925 148.831L155.484 181.071C155.818 182.329 156.964 183.2 158.266 183.184L171.706 183.02C173.579 182.996 174.918 181.2 174.406 179.398Z" fill="#6E747F"/>
<path d="M172.19 179.398L163.066 147.323C162.718 146.101 161.601 145.258 160.331 145.258H147.457C145.59 145.258 144.23 147.026 144.709 148.831L153.268 181.071C153.602 182.329 154.748 183.2 156.051 183.184L169.491 183.019C171.363 182.996 172.703 181.2 172.19 179.398Z" fill="#8E929B"/>
<path d="M157.062 149.579C157.062 150.723 157.99 151.651 159.134 151.651C160.278 151.651 161.205 150.723 161.205 149.579C161.205 148.435 160.278 147.508 159.134 147.508C157.989 147.508 157.062 148.435 157.062 149.579Z" fill="#6E747F"/>
<path d="M183.238 163.785C183.238 163.785 176.102 160.658 173.273 160.1C170.444 159.542 171.064 158.666 170.208 160.102C169.351 161.538 170.979 162.91 170.979 162.91C170.979 162.91 165.337 164.519 163.528 164.75C161.719 164.981 158.59 166.217 158.656 167.554C158.722 168.891 167.334 167.173 167.334 167.173C167.334 167.173 160.224 169.332 160.022 170.579C159.819 171.825 169.269 170.408 169.269 170.408C169.269 170.408 161.573 172.34 161.102 173.018C160.631 173.696 161.48 174.326 164.371 174.304C167.261 174.282 170.208 173.514 170.208 173.514C170.208 173.514 164.901 175.276 164.339 175.71C163.777 176.144 163.317 177.152 167.596 176.665C171.874 176.179 180.952 173.619 184.969 170.498L183.238 163.787L183.238 163.785Z" fill="#F29A53"/>
<path d="M186.181 176.502C186.035 176.502 185.905 176.401 185.872 176.256L182.608 162.324C182.573 162.179 182.644 162.031 182.779 161.965L206.492 150.4L201.202 134.827C201.145 134.661 201.234 134.48 201.401 134.423C201.569 134.367 201.748 134.456 201.804 134.622L207.186 150.46C207.238 150.612 207.169 150.779 207.024 150.849L183.287 162.426L186.427 175.83L206.966 173.19C207.134 173.166 207.3 173.29 207.323 173.465C207.345 173.64 207.222 173.8 207.048 173.822L186.223 176.499C186.209 176.501 186.195 176.502 186.181 176.502L186.181 176.502Z" fill="#18142D"/>
<path d="M39.4657 166.983L55.0079 181.942L76.764 182.061C76.9022 174.672 76.9169 171.569 76.9169 171.569C80.7276 169.935 86.1497 166.396 88.9033 163.89L89.0664 134.013L54.3195 152.731C58.1854 150.52 61.1582 146.317 63.5524 144.438C66.9122 141.801 70.9757 139.569 74.2475 136.823C77.5193 134.078 80.3414 130.66 81.7536 126.63C82.4143 124.743 82.6615 122.397 81.2672 120.965C80.2714 119.942 78.6761 119.703 77.2798 120.001C75.8836 120.299 74.6338 121.053 73.414 121.795C65.6606 126.511 57.9072 131.227 50.1543 135.944C47.0223 137.849 43.8519 139.784 41.3147 142.43C38.7774 145.075 36.9029 148.558 36.9572 152.223C37.0291 157.146 38.7427 162.112 39.4657 166.983Z" fill="#ED7B5F"/>
<path d="M32.3091 124.064C40.2208 120.104 48.2834 116.84 56.7379 114.233C58.4264 113.712 60.2632 113.221 61.9264 113.819C63.9305 114.539 65.135 116.775 65.0616 118.903C64.9886 121.031 63.8349 123.007 62.3218 124.505C60.8082 126.003 58.9477 127.092 57.1081 128.165C52.5199 130.842 47.9317 133.519 43.343 136.196C41.7083 137.15 40.7783 137.599 40.2906 139.428C38.8904 144.682 39.1564 147.455 38.4434 151.34C37.3884 157.09 30.4693 161.613 24.6264 161.794L32.3091 124.064Z" fill="#ED7B5F"/>
<path d="M85.7523 81.3333L36.1409 81.0625L35.6278 175.048L85.2392 175.318L85.7523 81.3333Z" fill="white"/>
<path d="M32.5288 83.983L32.0304 175.292C32.0107 178.899 34.9183 181.838 38.5246 181.858L82.2689 182.097C85.8753 182.116 88.8148 179.209 88.8345 175.603L89.3329 84.2931C89.3526 80.6867 86.445 77.7472 82.8387 77.7276L39.0943 77.4888C35.488 77.4695 32.5485 80.3766 32.5288 83.983ZM85.7352 84.4047L85.2703 169.562C85.253 172.745 82.6583 175.312 79.4755 175.294L41.3922 175.086C38.2089 175.069 35.6424 172.474 35.6598 169.291L36.1247 84.1339C36.1339 82.4448 37.5129 81.0773 39.2055 81.0865L45.6651 81.1218C46.9445 81.1287 47.9757 82.1713 47.9688 83.4507C47.9595 85.1531 49.3318 86.5406 51.0343 86.5499L60.9167 86.6038L70.7992 86.6578C72.5016 86.6671 73.8891 85.2947 73.8984 83.5923C73.9053 82.3129 74.9479 81.2816 76.2273 81.2886L82.6874 81.3239C84.3809 81.3331 85.7444 82.7156 85.7352 84.4047Z" fill="#1C1B1E"/>
<g filter="url(#filter0_d_6954_9223)">
<mask id="mask0_6954_9223" style="mask-type:luminance" maskUnits="userSpaceOnUse" x="38" y="88" width="45" height="70">
<path d="M80.7751 88.9613L40.9783 88.746C39.7903 88.7396 38.8219 89.6975 38.8155 90.8856L38.4656 155.555C38.4592 156.743 39.4171 157.712 40.6051 157.718L80.4019 157.933C81.59 157.94 82.5583 156.982 82.5647 155.794L82.9146 91.1242C82.9211 89.9361 81.9632 88.9678 80.7751 88.9613Z" fill="white"/>
</mask>
<g mask="url(#mask0_6954_9223)">
<g filter="url(#filter1_d_6954_9223)">
<path d="M80.7763 88.9613C81.9644 88.9678 82.9223 89.9361 82.9159 91.1242L82.7195 127.425C82.7178 127.722 82.4716 127.955 82.1844 128.03C81.2521 128.276 80.5588 129.167 80.553 130.231C80.5473 131.296 81.2309 132.194 82.1605 132.45C82.4469 132.529 82.6906 132.764 82.689 133.061L82.566 155.788C82.5596 156.976 81.5913 157.934 80.4032 157.927L40.6064 157.712C39.4183 157.705 38.4604 156.737 38.4669 155.549L38.5898 132.822C38.5914 132.525 38.8376 132.293 39.1248 132.217C40.0571 131.971 40.7505 131.081 40.7563 130.016C40.762 128.951 40.0783 128.053 39.1487 127.798C38.8624 127.719 38.6187 127.484 38.6203 127.187L38.8167 90.8856C38.8232 89.6975 39.7915 88.7396 40.9795 88.746L80.7763 88.9613ZM41.5634 129.928C41.4149 129.927 41.2939 130.047 41.2931 130.195C41.2923 130.344 41.412 130.465 41.5605 130.466L42.4283 130.47C42.5768 130.471 42.6978 130.351 42.6986 130.203C42.6994 130.054 42.5797 129.933 42.4312 129.933L41.5634 129.928ZM44.1668 129.942C44.0183 129.941 43.8973 130.061 43.8965 130.209C43.8957 130.358 44.0154 130.479 44.1639 130.48L45.8995 130.489C46.048 130.49 46.1691 130.37 46.1699 130.222C46.1707 130.073 46.0509 129.952 45.9024 129.951L44.1668 129.942ZM47.638 129.961C47.4896 129.96 47.3685 130.08 47.3677 130.228C47.3669 130.377 47.4867 130.498 47.6351 130.498L49.3708 130.508C49.5193 130.509 49.6403 130.389 49.6411 130.24C49.6419 130.092 49.5222 129.971 49.3737 129.97L47.638 129.961ZM51.1093 129.979C50.9608 129.979 50.8398 130.098 50.8389 130.247C50.8381 130.395 50.9579 130.516 51.1064 130.517L52.842 130.527C52.9905 130.527 53.1115 130.408 53.1123 130.259C53.1131 130.111 52.9935 129.99 52.8449 129.989L51.1093 129.979ZM54.5805 129.998C54.4321 129.997 54.3109 130.117 54.3101 130.266C54.3093 130.414 54.4291 130.535 54.5776 130.536L56.3133 130.545C56.4617 130.546 56.5829 130.426 56.5837 130.278C56.5843 130.129 56.4646 130.008 56.3162 130.008L54.5805 129.998ZM58.0518 130.017C57.9032 130.016 57.7823 130.136 57.7815 130.284C57.7807 130.433 57.9003 130.554 58.0489 130.555L59.7845 130.564C59.9329 130.565 60.054 130.445 60.0549 130.297C60.0557 130.148 59.9358 130.027 59.7874 130.026L58.0518 130.017ZM61.5229 130.036C61.3744 130.035 61.2533 130.155 61.2525 130.303C61.2517 130.452 61.3715 130.573 61.52 130.574L63.2556 130.583C63.4041 130.584 63.5251 130.464 63.5259 130.316C63.5267 130.167 63.407 130.046 63.2585 130.045L61.5229 130.036ZM64.9941 130.055C64.8456 130.054 64.7247 130.173 64.7237 130.322C64.7229 130.47 64.8427 130.591 64.9912 130.592L66.7269 130.602C66.8753 130.603 66.9964 130.483 66.9972 130.334C66.998 130.186 66.8782 130.065 66.7298 130.064L64.9941 130.055ZM68.4654 130.073C68.3168 130.073 68.1958 130.192 68.195 130.341C68.1942 130.489 68.3139 130.61 68.4625 130.611L70.1981 130.621C70.3466 130.621 70.4676 130.502 70.4684 130.353C70.4692 130.205 70.3494 130.084 70.201 130.083L68.4654 130.073ZM71.9366 130.092C71.7882 130.091 71.667 130.211 71.6662 130.36C71.6654 130.508 71.7852 130.629 71.9337 130.63L73.6693 130.639C73.8178 130.64 73.9388 130.52 73.9396 130.372C73.9404 130.223 73.8207 130.102 73.6722 130.102L71.9366 130.092ZM75.4079 130.111C75.2593 130.11 75.1384 130.23 75.1376 130.378C75.1368 130.527 75.2564 130.648 75.405 130.649L77.1406 130.658C77.289 130.659 77.4101 130.539 77.411 130.391C77.4118 130.242 77.2919 130.121 77.1435 130.12L75.4079 130.111ZM78.8791 130.13C78.7305 130.129 78.6096 130.249 78.6088 130.397C78.6079 130.546 78.7276 130.667 78.8762 130.668L79.7439 130.672C79.8925 130.673 80.0135 130.553 80.0143 130.405C80.0151 130.256 79.8953 130.135 79.7468 130.134L78.8791 130.13Z" fill="white"/>
</g>
<path d="M46.3357 142.575L50.3714 142.597L50.3321 149.865M43.1072 142.557L43.1152 142.557L43.0934 146.595M47.121 146.617L47.1291 146.617L46.3139 146.613M53.1963 142.612L57.6357 142.636M43.0678 149.826L47.1035 149.847M50.4103 135.414L50.3889 139.366M54.852 149.889L56.3049 149.897C56.757 149.9 56.983 149.901 57.1561 149.814C57.3085 149.737 57.4326 149.614 57.5107 149.463C57.5997 149.29 57.6009 149.064 57.6034 148.612L57.6112 147.158C57.6137 146.706 57.6149 146.48 57.5278 146.307C57.4513 146.154 57.3285 146.03 57.177 145.952C57.0049 145.863 56.7789 145.862 56.3267 145.859L54.8739 145.851C54.4218 145.849 54.1958 145.848 54.0227 145.935C53.8704 146.011 53.7463 146.134 53.668 146.286C53.5792 146.458 53.5779 146.684 53.5755 147.137L53.5676 148.59C53.5652 149.043 53.564 149.269 53.6509 149.442C53.7276 149.594 53.8503 149.718 54.0018 149.797C54.174 149.886 54.4 149.887 54.852 149.889ZM54.9088 139.391L56.3617 139.399C56.8138 139.401 57.0398 139.402 57.2129 139.315C57.3653 139.238 57.4894 139.116 57.5675 138.964C57.6565 138.792 57.6577 138.566 57.6602 138.113L57.668 136.66C57.6705 136.207 57.6717 135.981 57.5846 135.808C57.5081 135.656 57.3853 135.531 57.2338 135.453C57.0617 135.364 56.8357 135.363 56.3835 135.361L54.9307 135.353C54.4786 135.35 54.2526 135.349 54.0795 135.436C53.9272 135.513 53.8031 135.636 53.7248 135.787C53.636 135.959 53.6347 136.186 53.6323 136.638L53.6244 138.092C53.622 138.544 53.6208 138.77 53.7077 138.943C53.7844 139.096 53.9071 139.22 54.0586 139.298C54.2308 139.387 54.4568 139.388 54.9088 139.391ZM44.4161 139.334L45.8689 139.342C46.3209 139.344 46.547 139.345 46.7201 139.258C46.8724 139.182 46.9965 139.059 47.0747 138.907C47.1636 138.735 47.1649 138.509 47.1673 138.057L47.1752 136.603C47.1776 136.151 47.1789 135.925 47.0918 135.751C47.0153 135.599 46.8924 135.475 46.741 135.396C46.5688 135.307 46.3428 135.306 45.8908 135.304L44.4379 135.296C43.9859 135.294 43.7598 135.292 43.5867 135.379C43.4344 135.456 43.3103 135.579 43.2321 135.73C43.1432 135.903 43.1419 136.129 43.1395 136.581L43.1316 138.035C43.1292 138.487 43.1279 138.713 43.215 138.886C43.2916 139.039 43.4144 139.163 43.5658 139.241C43.738 139.33 43.964 139.332 44.4161 139.334Z" stroke="black" stroke-width="1.69409" stroke-linecap="round" stroke-linejoin="round"/>
<path d="M62.3215 143.872C62.2308 143.871 62.1522 143.837 62.0854 143.77C62.0227 143.702 61.9916 143.623 61.9921 143.533L62.0118 139.889C62.0123 139.798 62.0443 139.719 62.1077 139.652C62.1752 139.586 62.2541 139.553 62.3449 139.553L62.5046 139.554C62.5954 139.554 62.674 139.589 62.7407 139.656C62.8074 139.723 62.8405 139.802 62.84 139.893L62.8317 141.425C62.8317 141.429 62.8337 141.431 62.8376 141.431C62.8415 141.431 62.8435 141.429 62.8435 141.425L64.0412 139.834C64.1723 139.654 64.3503 139.564 64.5751 139.565L64.8709 139.567C64.938 139.567 64.987 139.599 65.0183 139.662C65.0495 139.726 65.0433 139.783 64.9996 139.834L63.6294 141.589C63.6095 141.617 63.6094 141.644 63.629 141.672L65.0442 143.614C65.0874 143.67 65.0929 143.729 65.061 143.792C65.0291 143.855 64.9777 143.886 64.9067 143.886L64.6109 143.884C64.3861 143.883 64.2111 143.791 64.0859 143.609L62.8413 141.828C62.8414 141.824 62.8394 141.822 62.8355 141.822C62.8316 141.822 62.8295 141.824 62.8295 141.827L62.8203 143.537C62.8198 143.628 62.7859 143.707 62.7184 143.773C62.651 143.84 62.572 143.873 62.4812 143.872L62.3215 143.872ZM66.0093 141.164C65.9538 141.207 65.8946 141.213 65.8317 141.181C65.7727 141.149 65.7434 141.1 65.7438 141.033L65.745 140.796C65.7462 140.575 65.8359 140.396 66.0142 140.259L66.6498 139.778C66.828 139.644 67.0295 139.578 67.2543 139.58L67.4317 139.581C67.5225 139.581 67.5992 139.615 67.6619 139.682C67.7286 139.75 67.7617 139.829 67.7612 139.92L67.7415 143.564C67.741 143.654 67.7071 143.733 67.6396 143.8C67.5762 143.867 67.4991 143.9 67.4084 143.899L67.2309 143.898C67.1401 143.898 67.0615 143.864 66.9948 143.796C66.9281 143.729 66.895 143.65 66.8955 143.559L66.9121 140.489L66.9063 140.483L66.9003 140.489L66.0093 141.164ZM69.603 140.261C69.5123 140.26 69.4336 140.229 69.3668 140.165C69.3003 140.098 69.2671 140.019 69.2676 139.928C69.268 139.837 69.3021 139.758 69.3694 139.692C69.4369 139.625 69.516 139.592 69.6066 139.592L71.7067 139.604C71.7974 139.604 71.8741 139.638 71.9368 139.706C72.0036 139.773 72.0366 139.852 72.0361 139.943C72.0349 140.168 71.9511 140.353 71.7847 140.498L70.8216 141.362C70.8177 141.366 70.8156 141.37 70.8156 141.374C70.8156 141.378 70.8176 141.38 70.8215 141.38L70.9162 141.38C71.279 141.382 71.5644 141.488 71.7722 141.698C71.9802 141.905 72.0831 142.193 72.0811 142.564C72.0786 143.017 71.9388 143.368 71.6613 143.615C71.384 143.858 70.989 143.978 70.4762 143.975C70.1726 143.973 69.8789 143.936 69.5953 143.864C69.5008 143.839 69.4242 143.786 69.3655 143.703C69.3067 143.62 69.2777 143.527 69.2782 143.424L69.2786 143.359C69.279 143.28 69.3109 143.219 69.3742 143.176C69.4416 143.129 69.5146 143.118 69.5933 143.142C69.9122 143.25 70.1958 143.305 70.4443 143.306C70.7046 143.308 70.9061 143.246 71.0487 143.12C71.1914 142.995 71.2634 142.812 71.2647 142.571C71.2659 142.35 71.1859 142.192 71.0247 142.097C70.8675 141.997 70.5877 141.946 70.1854 141.944L70.1204 141.944C70.0416 141.943 69.9726 141.913 69.9138 141.854C69.859 141.795 69.8317 141.725 69.8321 141.646C69.8332 141.449 69.905 141.286 70.0477 141.157L71.0167 140.286C71.0208 140.282 71.0227 140.279 71.0227 140.275C71.0227 140.271 71.0209 140.269 71.0168 140.269L69.603 140.261ZM75.7563 140.827C75.7543 141.197 75.6341 141.554 75.3956 141.895C75.161 142.233 74.7051 142.683 74.0277 143.243C74.0197 143.251 74.0158 143.257 74.0157 143.26C74.0157 143.265 74.0177 143.266 74.0216 143.266L75.4177 143.274C75.5085 143.274 75.5871 143.309 75.6538 143.376C75.7206 143.439 75.7536 143.516 75.7531 143.607C75.7526 143.698 75.7187 143.777 75.6513 143.843C75.5838 143.91 75.5049 143.943 75.4141 143.942L73.243 143.931C73.1523 143.93 73.0737 143.896 73.007 143.829C72.9443 143.762 72.9131 143.682 72.9136 143.592C72.9148 143.367 73.0006 143.188 73.1709 143.055C73.8561 142.514 74.3158 142.093 74.5502 141.79C74.7846 141.488 74.9025 141.193 74.904 140.905C74.9064 140.467 74.673 140.247 74.2036 140.244C73.9631 140.243 73.6708 140.309 73.327 140.441C73.2519 140.472 73.181 140.466 73.1141 140.422C73.0513 140.378 73.02 140.319 73.0204 140.244L73.021 140.143C73.0215 140.041 73.0496 139.948 73.1053 139.866C73.1649 139.779 73.2421 139.723 73.3369 139.695C73.6726 139.603 74.0023 139.557 74.3256 139.559C74.7871 139.561 75.1414 139.674 75.3887 139.896C75.6359 140.118 75.7585 140.428 75.7563 140.827ZM76.9443 143.921C76.8498 143.897 76.7713 143.845 76.7085 143.766C76.6498 143.683 76.6207 143.59 76.6213 143.488L76.6216 143.428C76.622 143.35 76.654 143.287 76.7173 143.24C76.7846 143.193 76.8557 143.181 76.9304 143.205C77.2257 143.298 77.4799 143.344 77.6928 143.345C78.3199 143.349 78.635 143.067 78.638 142.499C78.6406 142.029 78.4152 141.793 77.9615 141.791C77.8432 141.79 77.7307 141.812 77.624 141.854C77.3355 141.971 77.132 142.029 77.0137 142.028L76.9723 142.028C76.8817 142.028 76.8049 141.994 76.7421 141.926C76.6794 141.859 76.6503 141.78 76.6547 141.689L76.7527 139.968C76.7612 139.874 76.7971 139.795 76.8605 139.732C76.9279 139.666 77.0089 139.632 77.1036 139.633L78.9493 139.643C79.04 139.643 79.1168 139.677 79.1794 139.745C79.2462 139.812 79.2792 139.891 79.2787 139.982C79.2782 140.073 79.2443 140.151 79.1769 140.218C79.1135 140.281 79.0364 140.312 78.9457 140.311L77.5673 140.304C77.5318 140.304 77.514 140.321 77.5138 140.357L77.4613 141.297C77.4613 141.301 77.4633 141.303 77.4672 141.303L77.4732 141.303L77.4791 141.297C77.6768 141.204 77.8901 141.158 78.1188 141.159C78.5447 141.161 78.8735 141.279 79.1048 141.513C79.3402 141.747 79.4567 142.077 79.4544 142.503C79.4489 143.517 78.8685 144.02 77.7129 144.014C77.4487 144.013 77.1924 143.982 76.9443 143.921Z" fill="#9CD36E"/>
<path d="M78.9882 146.144L62.1527 146.053C61.5668 146.049 61.0892 146.522 61.0861 147.108C61.0829 147.694 61.5553 148.171 62.1412 148.174L78.9767 148.265C79.5626 148.269 80.0401 147.796 80.0433 147.21C80.0465 146.624 79.5741 146.147 78.9882 146.144Z" fill="#AFAFAF" fill-opacity="0.7"/>
<path d="M78.3348 154.57L42.7059 154.378C42.446 154.376 42.2342 154.586 42.2328 154.846C42.2314 155.105 42.4409 155.317 42.7008 155.319L78.3297 155.511C78.5896 155.513 78.8014 155.303 78.8028 155.043C78.8042 154.784 78.5947 154.572 78.3348 154.57Z" fill="#F0F0F0"/>
<path d="M50.9826 94.7824C50.4577 94.7795 50.1944 94.9395 50.1927 95.2621C50.1921 95.3783 50.226 95.471 50.2944 95.5402C50.3629 95.6051 50.4552 95.6379 50.5714 95.6385C50.7779 95.6396 50.9461 95.576 51.0758 95.4476C51.2056 95.3149 51.2711 95.1389 51.2723 94.9195L51.2727 94.842C51.2729 94.8033 51.2537 94.7839 51.215 94.7836L50.9826 94.7824ZM50.2512 96.379C49.9543 96.3773 49.7096 96.2814 49.517 96.091C49.3288 95.8964 49.2355 95.6463 49.2371 95.3409C49.2413 94.5578 49.8243 94.1695 50.9859 94.1758L51.2182 94.177C51.257 94.1772 51.2764 94.1601 51.2766 94.1257L51.2768 94.0934C51.2777 93.9299 51.2353 93.8114 51.1496 93.7378C51.0683 93.6642 50.9286 93.6269 50.7307 93.6258C50.4683 93.6244 50.154 93.6636 49.7879 93.7433C49.6974 93.76 49.6158 93.7402 49.5429 93.6839C49.4744 93.6276 49.4404 93.5543 49.4409 93.4639L49.4409 93.451C49.4415 93.3435 49.4743 93.2468 49.5393 93.1611C49.6086 93.0712 49.695 93.0179 49.7983 93.0012C50.1773 92.9301 50.5045 92.8953 50.7799 92.8968C51.3435 92.8999 51.7409 93.0031 51.9721 93.2066C52.2077 93.4101 52.3242 93.7463 52.3216 94.2152L52.3122 95.9577C52.3117 96.0567 52.2746 96.1425 52.2011 96.2153C52.1275 96.288 52.0413 96.3241 51.9423 96.3236L51.7036 96.3223C51.6003 96.3217 51.5123 96.2868 51.4395 96.2176C51.3668 96.144 51.3285 96.0556 51.3248 95.9524L51.3252 95.8814C51.3252 95.8771 51.3231 95.8749 51.3188 95.8749C51.3102 95.8748 51.3058 95.877 51.3058 95.8813C51.033 96.2154 50.6814 96.3813 50.2512 96.379ZM53.5175 96.3321C53.4186 96.3316 53.3327 96.2945 53.26 96.221C53.1873 96.1474 53.1512 96.0612 53.1517 95.9622L53.1739 91.8578C53.1744 91.7588 53.2115 91.673 53.285 91.6003C53.3585 91.5275 53.4448 91.4914 53.5437 91.4919L53.9051 91.4939C54.0041 91.4944 54.0899 91.5315 54.1627 91.605C54.2354 91.6785 54.2715 91.7648 54.271 91.8637L54.2488 95.9682C54.2483 96.0671 54.2112 96.153 54.1377 96.2257C54.0641 96.2985 53.9779 96.3346 53.8789 96.334L53.5175 96.3321ZM55.5184 96.3429C55.4195 96.3424 55.3336 96.3053 55.2609 96.2318C55.1881 96.1583 55.152 96.072 55.1526 95.9731L55.1748 91.8686C55.1753 91.7697 55.2123 91.6838 55.2859 91.6111C55.3594 91.5383 55.4456 91.5022 55.5446 91.5028L55.906 91.5047C56.005 91.5053 56.0908 91.5423 56.1635 91.6158C56.2363 91.6894 56.2724 91.7756 56.2719 91.8746L56.2497 95.979C56.2491 96.078 56.2121 96.1638 56.1385 96.2366C56.065 96.3093 55.9788 96.3454 55.8798 96.3449L55.5184 96.3429ZM57.4773 96.3535C57.3784 96.353 57.2925 96.3159 57.2198 96.2424C57.1513 96.1689 57.1174 96.0827 57.1179 95.9837L57.1321 93.3636C57.1326 93.2646 57.1675 93.1788 57.2368 93.106C57.3103 93.0332 57.3965 92.9971 57.4955 92.9977L57.8117 92.9994C57.9107 92.9999 57.9944 93.0369 58.0628 93.1105C58.1355 93.184 58.1717 93.2702 58.1711 93.3692L58.1696 93.6402C58.1696 93.6445 58.1718 93.6467 58.1761 93.6467C58.1847 93.6468 58.189 93.6446 58.189 93.6403C58.4577 93.2847 58.831 93.078 59.3089 93.0204C59.4079 93.008 59.4916 93.0386 59.5601 93.1121C59.6328 93.1856 59.6689 93.274 59.6683 93.3773L59.6681 93.4289C59.6675 93.5279 59.6305 93.6137 59.5569 93.6865C59.4877 93.7592 59.4014 93.7996 59.2981 93.8077C58.9494 93.8445 58.6777 93.9635 58.483 94.1647C58.2927 94.3616 58.1966 94.6192 58.1949 94.9376L58.1892 95.9895C58.1887 96.0885 58.1516 96.1743 58.0781 96.247C58.0089 96.3198 57.9248 96.3559 57.8258 96.3554L57.4773 96.3535ZM60.7614 96.3713C60.6624 96.3707 60.5766 96.3337 60.5038 96.2602C60.4311 96.1866 60.395 96.1004 60.3955 96.0014L60.4097 93.3813C60.4102 93.2824 60.4473 93.1965 60.5208 93.1238C60.5943 93.051 60.6806 93.0149 60.7795 93.0154L61.1409 93.0174C61.2399 93.0179 61.3257 93.055 61.3985 93.1285C61.4712 93.202 61.5073 93.2883 61.5068 93.3872L61.4926 96.0074C61.4921 96.1063 61.455 96.1922 61.3815 96.2649C61.308 96.3377 61.2217 96.3738 61.1228 96.3732L60.7614 96.3713ZM60.783 92.3701C60.6841 92.3696 60.5982 92.3325 60.5255 92.259C60.4527 92.1854 60.4166 92.0992 60.4172 92.0002L60.4177 91.897C60.4182 91.798 60.4553 91.7122 60.5288 91.6394C60.6024 91.5667 60.6886 91.5306 60.7876 91.5311L61.149 91.5331C61.2479 91.5336 61.3338 91.5707 61.4065 91.6442C61.4792 91.7177 61.5154 91.804 61.5148 91.9029L61.5143 92.0062C61.5137 92.1051 61.4767 92.191 61.4032 92.2637C61.3296 92.3365 61.2434 92.3726 61.1444 92.372L60.783 92.3701ZM63.8449 93.7419C63.4146 93.7396 63.1978 94.0611 63.1943 94.7065C63.1925 95.0335 63.2493 95.2769 63.3646 95.4367C63.4799 95.5965 63.6365 95.6769 63.8344 95.678C64.0065 95.6789 64.1574 95.6217 64.2871 95.5062C64.4168 95.3907 64.482 95.2599 64.4828 95.1136L64.4872 94.3133C64.4879 94.1671 64.4241 94.0355 64.2957 93.9186C64.1672 93.8018 64.017 93.7429 63.8449 93.7419ZM63.4753 96.4505C63.0924 96.4484 62.7791 96.294 62.5355 95.9872C62.292 95.6761 62.1717 95.2474 62.1746 94.701C62.1777 94.1417 62.2983 93.7121 62.5366 93.4122C62.7748 93.1123 63.094 92.9634 63.4941 92.9656C63.8469 92.9675 64.1667 93.1005 64.4536 93.3645C64.4578 93.3688 64.4621 93.371 64.4664 93.371C64.4707 93.371 64.4729 93.3689 64.4729 93.3646L64.4808 91.919C64.4813 91.82 64.5162 91.7342 64.5854 91.6614C64.6589 91.5886 64.7452 91.5525 64.8441 91.5531L65.1604 91.5548C65.2593 91.5553 65.343 91.5924 65.4115 91.6659C65.4842 91.7394 65.5203 91.8256 65.5198 91.9246L65.4976 96.029C65.497 96.128 65.46 96.2138 65.3865 96.2866C65.3172 96.3594 65.2331 96.3955 65.1342 96.3949L64.8889 96.3936C64.7857 96.3931 64.6977 96.3582 64.6249 96.2889C64.5565 96.2154 64.5204 96.127 64.5166 96.0237L64.5169 95.9721C64.5169 95.9678 64.5148 95.9656 64.5105 95.9656L64.4975 95.9785C64.2247 96.2954 63.884 96.4527 63.4753 96.4505ZM67.6918 93.6918C67.4982 93.6907 67.3517 93.7416 67.2522 93.8443C67.1527 93.9427 67.0894 94.1144 67.0622 94.3595C67.062 94.394 67.077 94.4113 67.1071 94.4114L68.1978 94.4173C68.2365 94.4175 68.2559 94.3983 68.2561 94.3595C68.2413 93.9163 68.0532 93.6937 67.6918 93.6918ZM67.8381 96.4741C67.253 96.4709 66.8021 96.3201 66.4853 96.0215C66.1728 95.7229 66.0181 95.2897 66.0212 94.7218C66.0243 94.1582 66.1664 93.7287 66.4477 93.4333C66.7332 93.1337 67.1428 92.9853 67.6763 92.9882C68.7002 92.9938 69.2178 93.5559 69.229 94.6746C69.2284 94.7778 69.187 94.8658 69.1049 94.9385C69.0271 95.0069 68.9366 95.0409 68.8333 95.0403L67.1102 95.031C67.0672 95.0308 67.0499 95.05 67.0583 95.0888C67.0914 95.3256 67.1808 95.496 67.3266 95.6001C67.4766 95.6999 67.7001 95.7505 67.9969 95.7521C68.1905 95.7532 68.3993 95.7264 68.6234 95.6716C68.7138 95.6506 68.7933 95.6683 68.8619 95.7246C68.9347 95.7809 68.9709 95.8542 68.9704 95.9446L68.9703 95.9575C68.9697 96.065 68.9348 96.1638 68.8655 96.2538C68.8005 96.3395 68.7163 96.3907 68.6129 96.4073C68.3631 96.4533 68.1049 96.4756 67.8381 96.4741ZM70.9461 95.1356C70.4819 95.0471 70.1492 94.9119 69.948 94.7301C69.751 94.5483 69.6534 94.309 69.655 94.0122C69.6567 93.6938 69.7764 93.447 70.014 93.2719C70.2559 93.0925 70.6177 93.0041 71.0996 93.0067C71.3836 93.0083 71.6738 93.0335 71.9705 93.0824C72.0736 93.1002 72.1572 93.1501 72.2213 93.2322C72.2897 93.3144 72.3236 93.4092 72.3231 93.5168L72.3229 93.549C72.3224 93.6394 72.2854 93.7123 72.212 93.7678C72.1428 93.8234 72.0631 93.8423 71.9729 93.8246C71.6935 93.7672 71.4355 93.7378 71.1989 93.7366C71.0225 93.7356 70.8976 93.7564 70.8243 93.7991C70.7552 93.8417 70.7204 93.9061 70.72 93.9921C70.7191 94.1556 70.8476 94.2639 71.1054 94.3169C71.5955 94.4013 71.9368 94.5322 72.1294 94.7096C72.3264 94.8871 72.424 95.1436 72.4222 95.4792C72.4204 95.8019 72.2986 96.0529 72.0567 96.2323C71.8148 96.4074 71.4637 96.4937 71.0033 96.4912C70.6677 96.4894 70.3495 96.4554 70.0487 96.3893C69.9456 96.3672 69.8598 96.3129 69.7914 96.2265C69.7274 96.1358 69.6957 96.0345 69.6963 95.9227L69.6966 95.8711C69.6971 95.7807 69.734 95.7121 69.8074 95.6651C69.8808 95.6139 69.9626 95.5993 70.0529 95.6213C70.3321 95.6959 70.6073 95.734 70.8783 95.7355C71.1967 95.7372 71.3564 95.6456 71.3574 95.4606C71.3579 95.3745 71.3281 95.3077 71.2681 95.26C71.2124 95.2124 71.1051 95.1709 70.9461 95.1356Z" fill="#9CD36E"/>
<path d="M56.1654 100.927L41.3248 100.847C41.036 100.845 40.8005 101.078 40.7989 101.367L40.7989 101.367C40.7974 101.656 41.0303 101.891 41.3192 101.893L56.1597 101.973C56.4486 101.975 56.6841 101.742 56.6856 101.453C56.6872 101.164 56.4543 100.928 56.1654 100.927Z" fill="#5F5F5F" fill-opacity="0.7"/>
<path d="M60.6905 100.411C60.6924 100.402 60.7059 100.402 60.7077 100.411L60.7875 100.813C60.8442 101.098 61.0657 101.322 61.3501 101.382L61.7507 101.466C61.7601 101.468 61.76 101.481 61.7506 101.483L61.3491 101.563C61.064 101.619 60.8402 101.841 60.7804 102.125L60.6963 102.526C60.6943 102.535 60.6809 102.535 60.679 102.526L60.5992 102.124C60.5425 101.839 60.3212 101.615 60.0366 101.556L59.636 101.471C59.6266 101.469 59.6267 101.456 59.6361 101.454L60.0376 101.374C60.3228 101.318 60.5465 101.096 60.6063 100.812L60.6905 100.411Z" fill="#9CD36E"/>
<path d="M80.0751 101.052L65.2345 100.972C64.9456 100.97 64.7102 101.203 64.7086 101.492L64.7086 101.492C64.707 101.781 64.94 102.016 65.2289 102.018L80.0694 102.098C80.3583 102.1 80.5937 101.867 80.5953 101.578C80.5969 101.289 80.3639 101.053 80.0751 101.052Z" fill="#5F5F5F" fill-opacity="0.7"/>
<path d="M41.0198 106.812C40.991 106.812 40.966 106.801 40.9447 106.78C40.9248 106.758 40.9149 106.733 40.915 106.704L40.9213 105.545C40.9215 105.516 40.9316 105.491 40.9518 105.47C40.9733 105.448 40.9984 105.438 41.0273 105.438L41.6484 105.441C41.6773 105.442 41.7023 105.452 41.7236 105.474C41.7448 105.495 41.7553 105.52 41.7551 105.549C41.755 105.578 41.7442 105.603 41.7227 105.624C41.7013 105.644 41.6762 105.654 41.6473 105.654L41.1993 105.652C41.1893 105.652 41.1842 105.657 41.1842 105.669L41.1824 105.998C41.1823 106.008 41.1873 106.013 41.1973 106.013L41.6133 106.015C41.6409 106.016 41.6647 106.026 41.6847 106.046C41.7047 106.065 41.7146 106.089 41.7144 106.118C41.7143 106.146 41.7041 106.171 41.6839 106.191C41.6637 106.21 41.6398 106.219 41.6122 106.219L41.1962 106.216C41.1862 106.216 41.1812 106.221 41.1811 106.231L41.1785 106.706C41.1784 106.735 41.1676 106.76 41.1461 106.781C41.1247 106.802 41.0995 106.813 41.0707 106.812L41.0198 106.812ZM42.0276 106.818C41.9988 106.817 41.9737 106.807 41.9525 106.785C41.9313 106.764 41.9208 106.739 41.9209 106.71L41.9251 105.946C41.9252 105.917 41.936 105.892 41.9575 105.87C41.9789 105.849 42.0041 105.839 42.0329 105.839L42.0706 105.839C42.0994 105.839 42.1245 105.85 42.1457 105.871C42.1669 105.893 42.1774 105.918 42.1773 105.947L42.1769 106.026C42.1769 106.027 42.1775 106.028 42.1787 106.028C42.1812 106.028 42.1825 106.027 42.1825 106.026C42.2192 105.976 42.2671 105.935 42.3262 105.904C42.3854 105.872 42.4501 105.852 42.5204 105.845C42.5468 105.843 42.5693 105.852 42.588 105.872C42.6068 105.891 42.616 105.913 42.6159 105.94C42.6158 105.966 42.6062 105.989 42.5873 106.007C42.5684 106.026 42.5457 106.037 42.5194 106.039C42.2972 106.055 42.1855 106.168 42.1844 106.376L42.1826 106.711C42.1824 106.74 42.1716 106.765 42.1502 106.786C42.1287 106.808 42.1036 106.818 42.0747 106.818L42.0276 106.818ZM43.3357 106.089C43.2996 106.036 43.2445 106.009 43.1705 106.009C43.0964 106.008 43.0405 106.034 43.0025 106.087C42.9659 106.138 42.9472 106.22 42.9466 106.333C42.946 106.446 42.9637 106.529 42.9999 106.582C43.0372 106.634 43.0929 106.66 43.167 106.66C43.241 106.66 43.2963 106.635 43.333 106.584C43.371 106.531 43.3902 106.448 43.3908 106.336C43.3914 106.223 43.3731 106.14 43.3357 106.089ZM43.5168 106.713C43.4335 106.8 43.3166 106.843 43.166 106.843C43.0154 106.842 42.8983 106.797 42.8147 106.709C42.7324 106.619 42.6916 106.494 42.6925 106.332C42.6934 106.17 42.7355 106.045 42.8188 105.958C42.9033 105.869 43.0209 105.825 43.1715 105.826C43.3221 105.827 43.4385 105.872 43.5209 105.962C43.6045 106.05 43.6458 106.175 43.6449 106.337C43.6441 106.499 43.6013 106.624 43.5168 106.713ZM43.9006 106.828C43.8717 106.828 43.8467 106.817 43.8255 106.795C43.8055 106.774 43.7956 106.749 43.7957 106.72L43.7999 105.956C43.8 105.927 43.8102 105.902 43.8304 105.881C43.8519 105.859 43.877 105.849 43.9059 105.849L43.9322 105.849C43.9611 105.849 43.9855 105.859 44.0055 105.88C44.0267 105.9 44.0379 105.924 44.0389 105.953L44.0389 105.966C44.0389 105.968 44.0395 105.968 44.0407 105.968C44.0433 105.968 44.0445 105.968 44.0445 105.966C44.1191 105.876 44.2027 105.832 44.2956 105.832C44.3521 105.833 44.3972 105.843 44.431 105.865C44.466 105.887 44.4965 105.924 44.5226 105.978C44.5226 105.98 44.5238 105.98 44.5263 105.98C44.5276 105.98 44.5288 105.98 44.5301 105.978C44.6097 105.882 44.699 105.834 44.7982 105.835C44.9023 105.836 44.9768 105.864 45.0217 105.921C45.0678 105.978 45.0905 106.075 45.0898 106.213L45.087 106.727C45.0868 106.756 45.076 106.781 45.0546 106.802C45.0344 106.823 45.0099 106.834 44.981 106.834L44.949 106.833C44.9201 106.833 44.8951 106.822 44.8739 106.801C44.8527 106.779 44.8421 106.754 44.8423 106.726L44.8449 106.249C44.8454 106.158 44.8369 106.097 44.8195 106.068C44.8021 106.039 44.7683 106.025 44.7181 106.025C44.6855 106.024 44.6528 106.039 44.62 106.069C44.5872 106.099 44.5707 106.129 44.5705 106.159L44.5675 106.724C44.5673 106.753 44.5565 106.778 44.5351 106.799C44.5136 106.82 44.4885 106.831 44.4596 106.831L44.4276 106.831C44.3988 106.83 44.3737 106.82 44.3525 106.798C44.3325 106.777 44.3226 106.752 44.3228 106.723L44.3254 106.246C44.3258 106.156 44.3168 106.097 44.2981 106.068C44.2807 106.037 44.2469 106.022 44.1967 106.022C44.1641 106.022 44.1314 106.037 44.0986 106.066C44.0658 106.096 44.0493 106.126 44.0491 106.157L44.0461 106.721C44.0459 106.75 44.0351 106.775 44.0137 106.796C43.9922 106.818 43.9671 106.828 43.9382 106.828L43.9006 106.828Z" fill="#B3B3B3"/>
<path d="M59.5982 107.711L41.2838 107.612C40.9949 107.611 40.7595 107.844 40.7579 108.132C40.7563 108.421 40.9893 108.657 41.2782 108.658L59.5926 108.757C59.8815 108.759 60.1169 108.526 60.1185 108.237C60.1201 107.948 59.8871 107.713 59.5982 107.711Z" fill="#5F5F5F" fill-opacity="0.7"/>
<path d="M78.6317 105.86C78.6028 105.859 78.5779 105.849 78.5566 105.829C78.5354 105.808 78.5249 105.782 78.525 105.754L78.5251 105.748C78.5252 105.719 78.536 105.694 78.5575 105.673C78.579 105.652 78.604 105.641 78.6329 105.641L79.4348 105.646C79.4637 105.646 79.4886 105.656 79.5099 105.678C79.5312 105.699 79.5416 105.725 79.5415 105.753L79.5415 105.759C79.5413 105.788 79.5305 105.813 79.509 105.834C79.4876 105.854 79.4625 105.864 79.4336 105.864L79.1814 105.863C79.1713 105.862 79.1663 105.868 79.1662 105.879L79.1606 106.911C79.1605 106.94 79.1497 106.965 79.1282 106.986C79.1067 107.007 79.0817 107.018 79.0528 107.018L79.0001 107.017C78.9712 107.017 78.9462 107.006 78.9249 106.985C78.9037 106.963 78.8932 106.938 78.8934 106.909L78.8989 105.878C78.899 105.867 78.894 105.861 78.884 105.861L78.6317 105.86ZM80.1364 106.287C80.1004 106.235 80.0452 106.208 79.9712 106.208C79.8972 106.207 79.8411 106.233 79.8032 106.286C79.7666 106.337 79.7479 106.419 79.7473 106.532C79.7467 106.645 79.7645 106.728 79.8005 106.781C79.8379 106.832 79.8937 106.858 79.9676 106.859C80.0417 106.859 80.0971 106.834 80.1337 106.782C80.1716 106.73 80.1909 106.647 80.1915 106.534C80.1921 106.421 80.1737 106.339 80.1364 106.287ZM80.3175 106.911C80.2342 106.999 80.1172 107.042 79.9666 107.041C79.8161 107.041 79.6991 106.996 79.6154 106.908C79.533 106.818 79.4923 106.692 79.4932 106.531C79.4941 106.369 79.5361 106.244 79.6194 106.157C79.7041 106.068 79.8216 106.024 79.9721 106.025C80.1227 106.026 80.2392 106.071 80.3215 106.16C80.4052 106.249 80.4465 106.374 80.4456 106.536C80.4447 106.698 80.4021 106.823 80.3175 106.911Z" fill="#B3B3B3"/>
<path d="M80.0404 107.821L61.726 107.722C61.4371 107.72 61.2016 107.953 61.2001 108.242C61.1985 108.531 61.4314 108.766 61.7203 108.768L80.0347 108.867C80.3236 108.868 80.5591 108.635 80.5606 108.347C80.5622 108.058 80.3293 107.822 80.0404 107.821Z" fill="#5F5F5F" fill-opacity="0.7"/>
<path d="M63.773 113.987L57.1859 113.951C56.6 113.948 56.1207 114.746 56.1153 115.733C56.11 116.721 56.5806 117.524 57.1665 117.527L63.7537 117.563C64.3396 117.566 64.8189 116.768 64.8242 115.781C64.8296 114.793 64.3589 113.99 63.773 113.987Z" fill="#AFAFAF" fill-opacity="0.7"/>
<path d="M77.7764 120.036L43.3576 119.85C42.7635 119.846 42.2794 120.325 42.2762 120.919L42.2689 122.264C42.2657 122.858 42.7446 123.342 43.3387 123.345L77.7575 123.531C78.3515 123.535 78.8357 123.056 78.8389 122.462L78.8462 121.117C78.8494 120.523 78.3704 120.039 77.7764 120.036Z" fill="#F0F0F0"/>
</g>
</g>
<path d="M48.9525 160.509C47.1145 163.084 46.163 166.246 46.2837 169.401C50.5001 174.455 54.5715 179.976 56.8823 186.136C59.1931 192.292 59.1926 199.722 55.2181 204.962C51.3736 210.031 44.1867 212.1 38.0751 210.327C32.4743 208.7 28.0053 204.289 25.0745 199.246C23.9551 197.327 22.974 195.32 22.1044 193.269C20.6901 189.942 19.5613 186.48 18.5882 183.005C18.4531 177.599 18.6794 170.375 19.4259 165.646C26.7983 161.371 33.2319 155.485 38.1412 148.515C39.2127 146.995 40.258 145.381 41.8073 144.353C43.8565 143.003 46.3794 142.91 48.8675 142.657C50.3186 142.509 51.7566 142.303 53.0808 141.759C54.356 141.232 55.486 140.411 56.7479 139.857C57.7022 139.439 58.7979 139.192 59.8067 139.375C59.9712 139.403 60.1311 139.444 60.2865 139.503C60.4419 139.552 60.5884 139.615 60.7348 139.692C62.4647 140.604 62.906 142.889 62.793 144.846C62.5857 148.599 61.0843 152.265 58.5955 155.081C56.1067 157.897 52.6529 159.84 48.9525 160.509Z" fill="#FFB27D"/>
<path d="M19.424 165.648C19.424 165.648 22.7778 153.987 23.4849 147.995C24.192 142.004 23.8053 130.535 26.1418 128.074C28.4783 125.614 32.309 124.061 32.309 124.061L32.1361 155.737L26.9981 163.378L19.424 165.648Z" fill="#FFB27D"/>
<path d="M18.5901 182.993C17.6527 191.32 8.95842 228.144 7.3351 232.632L54.4981 232.889C54.4981 232.889 52.9795 218.192 53.7903 216.098C64.0981 213.257 76.6739 197.667 76.7592 182.049L55.0031 181.931L18.5901 182.993Z" fill="#FFB27D"/>
<path d="M97.4749 149.823C97.3517 150.634 97.0259 151.406 96.6846 152.155C95.0954 155.616 93.1462 159 90.6942 161.924C90.1273 162.603 89.5262 163.262 88.8987 163.887L88.983 148.451C89.6712 147.96 90.5211 147.352 91.3934 146.87C92.0118 146.529 92.6415 146.252 93.2245 146.126C94.6359 145.823 96.2997 146.216 97.0707 147.438C97.5073 148.134 97.5982 149.007 97.4749 149.823Z" fill="#FFB27D"/>
<path d="M97.1025 136.647C97.0156 137.819 96.55 138.931 96.0194 139.978C94.6641 142.632 92.6817 145.177 90.4293 147.229C89.9594 147.659 89.4749 148.066 88.9822 148.45L89.061 134.01C89.6833 133.684 90.3173 133.354 90.9696 133.089C91.4649 132.889 91.9711 132.727 92.4966 132.631C93.7082 132.411 95.0591 132.606 95.9741 133.435C96.844 134.221 97.1894 135.476 97.1025 136.647Z" fill="#FFB27D"/>
<path d="M58.0354 144.396C56.7308 145.507 54.9896 145.919 53.3175 146.297C52.612 146.458 51.8753 146.618 51.1756 146.446C50.3226 146.239 49.6444 145.553 49.2813 144.754C48.9859 144.105 48.8751 143.385 48.8674 142.664C50.3198 142.515 51.7574 142.309 53.082 141.764C54.3568 141.239 55.4872 140.417 56.7465 139.865C57.7026 139.445 58.7996 139.198 59.8057 139.384C60.129 141.205 59.4482 143.189 58.0354 144.396Z" fill="#FFC197"/>
<path opacity="0.2" d="M46.2834 169.401C46.1628 166.246 47.1142 163.084 48.9522 160.509C52.6526 159.84 56.1064 157.897 58.5952 155.081C60.7966 152.591 62.2232 149.435 62.6678 146.142C62.5497 146.577 62.4201 147.01 62.2643 147.437C61.059 150.741 58.8814 153.354 55.9535 155.281C54.1797 156.449 52.2131 157.389 50.1318 157.85C49.0147 158.098 47.4634 158.535 46.3078 158.086C46.0516 158.096 45.7962 158.104 45.5444 158.101C46.1962 159.297 45.5347 160.682 45.2205 162.01C44.4238 165.351 42.814 168.501 40.5622 171.1C43.3081 170.888 45.5562 173.049 47.2392 175.229C50.6097 179.58 52.9661 184.718 54.0666 190.111C54.6907 193.148 54.8953 196.401 53.7097 199.264C51.9471 203.521 47.2664 206.116 42.6615 206.228C38.0565 206.346 33.6057 204.315 29.9867 201.466C27.0012 199.114 24.4991 196.231 22.1041 193.269C22.9737 195.32 23.9548 197.327 25.0743 199.246C28.005 204.289 32.474 208.699 38.0748 210.327C44.1864 212.1 51.3733 210.03 55.2178 204.962C59.1923 199.721 59.1928 192.292 56.882 186.136C54.5713 179.976 50.4998 174.455 46.2834 169.401Z" fill="#EFA26F"/>
<path d="M40.2488 146.883C41.2707 148.169 42.2927 149.455 43.3146 150.74" stroke="#EFA26F" stroke-width="0.287286" stroke-miterlimit="10"/>
<path d="M42.0649 145.602C43.1173 146.933 44.1702 148.264 45.223 149.595" stroke="#EFA26F" stroke-width="0.287286" stroke-miterlimit="10"/>
<path d="M43.8131 144.499C43.7778 144.439 43.7425 144.38 43.7073 144.32C44.6907 145.567 45.6742 146.814 46.6576 148.062" stroke="#EFA26F" stroke-width="0.287286" stroke-miterlimit="10"/>
<path d="M30.7992 228.954C31.6795 224.644 32.5603 220.334 33.4406 216.024C33.6518 214.992 33.8462 213.848 33.3129 212.939C32.8928 212.223 32.109 211.814 31.3627 211.45C30.6502 211.103 29.8344 210.755 29.0914 211.031C28.3688 211.3 27.9763 212.063 27.653 212.763C25.1608 218.159 22.8284 223.63 20.6597 229.164" stroke="#EFA26F" stroke-width="0.287286" stroke-miterlimit="10"/>
<path d="M47.4233 229.422C46.6731 226.916 45.9225 224.409 45.1724 221.903C44.9339 221.106 44.6852 220.289 44.179 219.628C43.5982 218.869 42.7182 218.381 41.8001 218.118C41.2227 217.953 40.575 217.875 40.0423 218.153C39.3303 218.524 39.0564 219.385 38.8489 220.16C38.0597 223.107 37.2704 226.054 36.4812 229" stroke="#EFA26F" stroke-width="0.287286" stroke-miterlimit="10"/>
<path d="M58.401 195.965C58.0702 198.856 57.4038 201.312 56.1431 203.58C54.8825 205.849 52.5448 207.798 50.2824 209.07C46.2307 211.347 40.9367 211.543 36.7205 209.869C32.5044 208.195 28.6409 204.832 26.179 201.005" stroke="#EFA26F" stroke-width="0.287286" stroke-miterlimit="10"/>
<path d="M25.915 129.695C26.6877 130.024 27.46 130.354 28.2327 130.683" stroke="#EFA26F" stroke-width="0.287286" stroke-miterlimit="10"/>
<path d="M26.2373 128.758C27.0316 129.047 27.8259 129.335 28.6201 129.625" stroke="#EFA26F" stroke-width="0.287286" stroke-miterlimit="10"/>
<path d="M94.2609 136.473C93.6795 136.79 93.1757 137.247 92.8043 137.796C92.5832 138.122 92.4059 138.49 92.3762 138.883C92.3465 139.276 92.4848 139.697 92.7975 139.936C93.3376 140.35 94.2332 140.003 94.4418 139.355C94.6504 138.707 94.227 137.959 93.5962 137.703C92.9659 137.446 92.2109 137.633 91.6876 138.068C91.1643 138.503 90.8525 139.151 90.7074 139.816C90.5623 140.481 90.5696 141.168 90.5904 141.849" stroke="#EFA26F" stroke-width="0.287286" stroke-miterlimit="10"/>
<path d="M94.3311 147.711C93.5629 147.938 92.8953 148.487 92.5231 149.197C92.1509 149.906 92.079 150.767 92.328 151.528C92.5008 152.057 92.8411 152.55 93.3366 152.803C93.8321 153.055 94.4903 153.017 94.8892 152.63C95.4433 152.092 95.255 151.055 94.6105 150.629C93.966 150.203 93.0529 150.348 92.4585 150.841C91.8641 151.335 91.5579 152.107 91.4718 152.875C91.3858 153.643 91.4963 154.417 91.6069 155.182" stroke="#EFA26F" stroke-width="0.287286" stroke-miterlimit="10"/>
<path d="M54.9985 181.93C56.4081 185.061 57.8995 188.275 58.2612 191.69C58.641 188.384 58.0422 185.035 56.8206 181.94L54.9985 181.93Z" fill="#EFA26F"/>
<path d="M69.8728 182.011L54.9985 181.93L57.346 184.066L69.8728 182.011Z" fill="#EFA26F"/>
<path d="M32.1327 155.727L25.7724 161.379L32.1943 151.293L32.1327 155.727Z" fill="#EFA26F"/>
<path d="M90.4257 147.229C89.9558 147.659 89.4714 148.067 88.9786 148.451L89.0276 139.477L90.4257 147.229Z" fill="#EFA26F"/>
<path d="M90.6901 161.915C90.1232 162.594 89.5222 163.253 88.8947 163.878L88.9412 155.359L90.6901 161.915Z" fill="#EFA26F"/>
<path d="M116.849 30.5625C123.577 30.5628 129.032 36.0174 129.032 42.7461C129.032 48.7217 124.73 53.6916 119.054 54.7295V64.8438L118.239 64.1855L106.816 54.9512L106.79 54.9297H78.9971C72.2683 54.9297 66.8135 49.4749 66.8135 42.7461C66.8135 36.0173 72.2683 30.5625 78.9971 30.5625H116.849Z" fill="#B7E85E"/>
<circle cx="82.2717" cy="42.7422" r="3.05469" fill="#70B934"/>
<circle cx="97.9226" cy="42.7422" r="3.05469" fill="#70B934"/>
<circle cx="113.573" cy="42.7422" r="3.05469" fill="#70B934"/>
</g>
<defs>
<filter id="filter0_d_6954_9223" x="34.1178" y="84.3932" width="57.4946" height="82.2344" filterUnits="userSpaceOnUse" color-interpolation-filters="sRGB">
<feFlood flood-opacity="0" result="BackgroundImageFix"/>
<feColorMatrix in="SourceAlpha" type="matrix" values="0 0 0 0 0 0 0 0 0 0 0 0 0 0 0 0 0 0 127 0" result="hardAlpha"/>
<feOffset dx="2.17448" dy="2.17448"/>
<feGaussianBlur stdDeviation="3.26172"/>
<feComposite in2="hardAlpha" operator="out"/>
<feColorMatrix type="matrix" values="0 0 0 0 0 0 0 0 0 0 0 0 0 0 0 0 0 0 0.09 0"/>
<feBlend mode="normal" in2="BackgroundImageFix" result="effect1_dropShadow_6954_9223"/>
<feBlend mode="normal" in="SourceGraphic" in2="effect1_dropShadow_6954_9223" result="shape"/>
</filter>
<filter id="filter1_d_6954_9223" x="37.5256" y="88.3388" width="46.3313" height="71.0698" filterUnits="userSpaceOnUse" color-interpolation-filters="sRGB">
<feFlood flood-opacity="0" result="BackgroundImageFix"/>
<feColorMatrix in="SourceAlpha" type="matrix" values="0 0 0 0 0 0 0 0 0 0 0 0 0 0 0 0 0 0 127 0" result="hardAlpha"/>
<feOffset dy="0.537802"/>
<feGaussianBlur stdDeviation="0.470577"/>
<feComposite in2="hardAlpha" operator="out"/>
<feColorMatrix type="matrix" values="0 0 0 0 0 0 0 0 0 0 0 0 0 0 0 0 0 0 0.07 0"/>
<feBlend mode="normal" in2="BackgroundImageFix" result="effect1_dropShadow_6954_9223"/>
<feBlend mode="normal" in="SourceGraphic" in2="effect1_dropShadow_6954_9223" result="shape"/>
</filter>
<clipPath id="clip0_6954_9223">
<rect width="224" height="224" rx="16" fill="white"/>
</clipPath>
</defs>
</svg>
