<svg width="224" height="224" viewBox="0 0 224 224" fill="none" xmlns="http://www.w3.org/2000/svg">
<g clip-path="url(#clip0_6954_8921)">
<path d="M188.878 20.7188H122.644V86.9532H188.878V20.7188Z" fill="#B7E85E"/>
<path d="M129.267 27.3359V40.2979H142.229V27.3359H129.267ZM139.765 37.8344H131.731V29.7999H139.765V37.8344Z" fill="#1C1B1E"/>
<path d="M137.971 31.5938H133.522V36.0427H137.971V31.5938Z" fill="#1C1B1E"/>
<path d="M129.267 67.2344V80.1964H142.229V67.2344H129.267ZM139.765 77.7324H131.731V69.6979H139.765V77.7324Z" fill="#1C1B1E"/>
<path d="M137.971 71.4922H133.522V75.9412H137.971V71.4922Z" fill="#1C1B1E"/>
<path d="M169.293 67.0938V80.0492H182.255V67.0938H169.293ZM179.791 77.5857H171.756V69.5518H179.791V77.5857Z" fill="#1C1B1E"/>
<path d="M178 71.3516H173.551V75.8011H178V71.3516Z" fill="#1C1B1E"/>
<path d="M149.283 47.3516V60.3136H162.239V47.3516H149.283ZM159.781 57.8501H151.74V49.8156H159.781V57.8501Z" fill="#1C1B1E"/>
<path d="M157.985 51.6094H153.536V56.0584H157.985V51.6094Z" fill="#1C1B1E"/>
<path d="M182.255 27.3359H148.469V31.5909H182.255V27.3359Z" fill="#1C1B1E"/>
<path d="M182.255 61.1219V27.3359H178V61.1219H182.255Z" fill="#1C1B1E"/>
<path d="M166.352 76.8828H145.877V80.0503H166.352V76.8828Z" fill="#1C1B1E"/>
<path d="M166.222 72H154.754V75.1675H166.222V72Z" fill="#1C1B1E"/>
<path d="M131.729 42.4531H129.267V62.5396H131.729V42.4531Z" fill="#1C1B1E"/>
<path d="M141.73 45.1641H131.729V47.3556H141.73V45.1641Z" fill="#1C1B1E"/>
<path d="M141.73 53.0781H131.729V56.0581H141.73V53.0781Z" fill="#1C1B1E"/>
<path d="M147.533 37.0156H144.221V40.3271H147.533V37.0156Z" fill="#1C1B1E"/>
<path d="M148.469 31.5938H145.157V34.9053H148.469V31.5938Z" fill="#1C1B1E"/>
<path d="M156.114 37.0156H152.803V40.3271H156.114V37.0156Z" fill="#1C1B1E"/>
<path d="M141.73 47.3516H138.418V50.6631H141.73V47.3516Z" fill="#1C1B1E"/>
<path d="M141.73 55.6406H138.418V58.9521H141.73V55.6406Z" fill="#1C1B1E"/>
<path d="M138.418 59.2266H135.107V62.5381H138.418V59.2266Z" fill="#1C1B1E"/>
<path d="M149.189 67.2344H145.877V70.5459H149.189V67.2344Z" fill="#1C1B1E"/>
<path d="M166.352 67.0938H163.04V70.4053H166.352V67.0938Z" fill="#1C1B1E"/>
<path d="M157.77 63.2891H154.459V66.6006H157.77V63.2891Z" fill="#1C1B1E"/>
<path d="M159.641 68.75H156.33V72.0615H159.641V68.75Z" fill="#1C1B1E"/>
<path d="M152.5 70.4062H149.189V73.7178H152.5V70.4062Z" fill="#1C1B1E"/>
<path d="M147.533 59.4688H144.221V62.7803H147.533V59.4688Z" fill="#1C1B1E"/>
<path d="M147.533 49.0078H144.221V52.3193H147.533V49.0078Z" fill="#1C1B1E"/>
<path d="M150.844 40.3281H147.533V43.6396H150.844V40.3281Z" fill="#1C1B1E"/>
<path d="M147.533 43.5078H144.221V46.8193H147.533V43.5078Z" fill="#1C1B1E"/>
<path d="M178 61.125H174.688V64.4365H178V61.125Z" fill="#1C1B1E"/>
<path d="M174.688 57.8125H171.376V61.124H174.688V57.8125Z" fill="#1C1B1E"/>
<path d="M171.376 54.5391H168.065V57.8506H171.376V54.5391Z" fill="#1C1B1E"/>
<path d="M168.008 51.2266H164.696V54.5381H168.008V51.2266Z" fill="#1C1B1E"/>
<path d="M168.008 37.9766H164.696V41.2881H168.008V37.9766Z" fill="#1C1B1E"/>
<path d="M137.57 41.8516H134.259V45.1631H137.57V41.8516Z" fill="#1C1B1E"/>
<path d="M135.041 48.8984H131.729V52.2099H135.041V48.8984Z" fill="#1C1B1E"/>
<path d="M159.072 41.9844H155.761V45.2959H159.072V41.9844Z" fill="#1C1B1E"/>
<path d="M165.696 41.9844H162.384V45.2959H165.696V41.9844Z" fill="#1C1B1E"/>
<path d="M162.384 41.9844H159.073V45.2959H162.384V41.9844Z" fill="#1C1B1E"/>
<path d="M161.384 31.3516H158.073V34.6631H161.384V31.3516Z" fill="#1C1B1E"/>
<path d="M168.008 31.3516H164.696V34.6631H168.008V31.3516Z" fill="#1C1B1E"/>
<path d="M174.631 31.3516H171.32V34.6631H174.631V31.3516Z" fill="#1C1B1E"/>
<path d="M174.631 37.9766H171.32V41.2881H174.631V37.9766Z" fill="#1C1B1E"/>
<path d="M174.631 44.6016H171.32V47.9131H174.631V44.6016Z" fill="#1C1B1E"/>
<path d="M174.631 51.2266H171.32V54.5381H174.631V51.2266Z" fill="#1C1B1E"/>
<path d="M168.064 57.8516H164.753V61.1631H168.064V57.8516Z" fill="#1C1B1E"/>
<path d="M195.502 27.3408V14.0938H182.255" stroke="#1C1B1E" stroke-width="0.4305" stroke-miterlimit="10" stroke-linecap="round" stroke-linejoin="round"/>
<path d="M195.502 80.3281V93.5751H182.255" stroke="#1C1B1E" stroke-width="0.4305" stroke-miterlimit="10" stroke-linecap="round" stroke-linejoin="round"/>
<path d="M116.02 80.3281V93.5751H129.267" stroke="#1C1B1E" stroke-width="0.4305" stroke-miterlimit="10" stroke-linecap="round" stroke-linejoin="round"/>
<path d="M116.02 27.3408V14.0938H129.267" stroke="#1C1B1E" stroke-width="0.4305" stroke-miterlimit="10" stroke-linecap="round" stroke-linejoin="round"/>
<path d="M198.814 45.9922H112.709V47.3167H198.814V45.9922Z" fill="#EA134B"/>
<path opacity="0.1" d="M128.823 24.0156L68.6958 69.4321L80.7987 75.1331L183.657 81.7248V26.6036L128.823 24.0156Z" fill="#6903F9"/>
<path d="M46.8472 164.382L64.4077 181.1H88.8612C88.9712 172.795 88.9687 169.306 88.9687 169.306C93.2417 167.447 99.3142 163.436 102.394 160.602V127.021L63.4547 148.273C67.7862 145.763 71.1017 141.022 73.7812 138.895C77.5412 135.911 82.0947 133.377 85.7552 130.271C89.4157 127.165 92.5667 123.306 94.1292 118.767C94.8602 116.643 95.1237 114.005 93.5477 112.403C92.4222 111.26 90.6277 111.001 89.0602 111.344C87.4927 111.688 86.0927 112.543 84.7262 113.384C76.0407 118.733 67.3552 124.081 58.6702 129.43C55.1617 131.59 51.6102 133.785 48.7747 136.774C45.9392 139.763 43.8537 143.689 43.9372 147.808C44.0482 153.341 46.0047 158.912 46.8472 164.382Z" fill="#ED7B5F"/>
<path d="M38.5463 116.182C47.4143 111.683 56.4563 107.965 65.9428 104.983C67.8373 104.387 69.8988 103.824 71.7718 104.485C74.0288 105.282 75.3963 107.788 75.3268 110.18C75.2578 112.573 73.9733 114.801 72.2818 116.493C70.5898 118.186 68.5053 119.422 66.4443 120.64C61.3038 123.677 56.1633 126.714 51.0223 129.751C49.1908 130.833 48.1483 131.343 47.6113 133.402C46.0698 139.315 46.3858 142.431 45.6083 146.801C44.4578 153.27 36.7088 158.397 30.1428 158.636L38.5463 116.182Z" fill="#ED7B5F"/>
<path d="M98.3519 67.8281H42.5894V173.466H98.3519V67.8281Z" fill="white"/>
<path d="M38.5474 71.1286V173.759C38.5474 177.813 41.8334 181.099 45.8869 181.099H95.0549C99.1084 181.099 102.394 177.813 102.394 173.759V71.1286C102.394 67.0751 99.1084 63.7891 95.0549 63.7891H45.8869C41.8334 63.7896 38.5474 67.0751 38.5474 71.1286ZM98.3514 71.2761V166.992C98.3514 170.57 95.4509 173.47 91.8734 173.47H49.0684C45.4904 173.47 42.5899 170.57 42.5899 166.992V71.2761C42.5899 69.3776 44.1314 67.8321 46.0339 67.8321H53.2944C54.7324 67.8321 55.8979 68.9976 55.8979 70.4356C55.8979 72.3491 57.4489 73.9001 59.3624 73.9001H81.5779C83.4914 73.9001 85.0424 72.3491 85.0424 70.4356C85.0424 68.9976 86.2079 67.8321 87.6459 67.8321H94.9069C96.8104 67.8321 98.3514 69.3776 98.3514 71.2761Z" fill="#1C1B1E"/>
<path d="M81.8709 163.874H59.0699C57.0524 163.874 55.4019 162.223 55.4019 160.206V152.473C55.4019 150.455 57.0524 148.805 59.0699 148.805H81.8709C83.8884 148.805 85.5389 150.455 85.5389 152.473V160.206C85.5389 162.223 83.8884 163.874 81.8709 163.874Z" fill="#B7E85E"/>
<path d="M62.1233 158.143C61.032 158.143 60.3325 157.707 60.1201 157.128C60.0835 157.033 60.0615 156.93 60.0615 156.832C60.0615 156.539 60.2629 156.344 60.5486 156.344C60.7756 156.344 60.9258 156.432 61.0576 156.667C61.2297 157.07 61.6436 157.253 62.1489 157.253C62.7422 157.253 63.145 156.967 63.145 156.579C63.145 156.231 62.896 156.033 62.2332 155.898L61.6729 155.788C60.6182 155.579 60.1018 155.074 60.1018 154.286C60.1018 153.32 60.9441 152.679 62.1196 152.679C63.0864 152.679 63.8152 153.085 64.0496 153.774C64.0752 153.847 64.0898 153.924 64.0898 154.019C64.0898 154.283 63.8994 154.462 63.6174 154.462C63.3684 154.462 63.2146 154.363 63.0901 154.136C62.9143 153.737 62.5737 153.572 62.1196 153.572C61.574 153.572 61.2114 153.829 61.2114 154.217C61.2114 154.543 61.4641 154.744 62.0903 154.869L62.647 154.982C63.7676 155.206 64.251 155.656 64.251 156.458C64.251 157.491 63.4417 158.143 62.1233 158.143ZM67.2832 158.143C65.7158 158.143 64.7637 157.117 64.7637 155.411C64.7637 153.708 65.7341 152.679 67.2539 152.679C68.2427 152.679 69.0081 153.118 69.3706 153.88C69.4438 154.019 69.4805 154.162 69.4805 154.294C69.4805 154.583 69.2864 154.77 68.9934 154.77C68.7444 154.77 68.5869 154.66 68.4661 154.404C68.2244 153.865 67.7922 153.594 67.2649 153.594C66.4299 153.594 65.8916 154.294 65.8916 155.407C65.8916 156.535 66.4226 157.231 67.2686 157.231C67.8252 157.231 68.2427 156.978 68.4807 156.447C68.5942 156.198 68.7334 156.099 68.9678 156.099C69.2791 156.099 69.4841 156.297 69.4841 156.59C69.4841 156.714 69.4548 156.832 69.3999 156.96C69.0703 157.692 68.283 158.143 67.2832 158.143ZM70.4436 158.124C70.0994 158.124 69.8833 157.923 69.8833 157.604C69.8833 157.513 69.9089 157.388 69.9565 157.253L71.3994 153.323C71.5532 152.895 71.8132 152.697 72.2307 152.697C72.6628 152.697 72.9192 152.887 73.0767 153.32L74.5269 157.253C74.5781 157.396 74.5964 157.494 74.5964 157.604C74.5964 157.908 74.3657 158.124 74.0435 158.124C73.7322 158.124 73.5674 157.981 73.4685 157.637L73.1902 156.802H71.2822L71.0039 157.626C70.9014 157.978 70.7366 158.124 70.4436 158.124ZM71.5239 155.945H72.9338L72.2344 153.781H72.2087L71.5239 155.945ZM75.8013 158.124C75.468 158.124 75.2703 157.923 75.2703 157.571V153.25C75.2703 152.898 75.4753 152.697 75.8269 152.697C76.054 152.697 76.2078 152.789 76.3762 153.019L78.6614 156.213H78.6907V153.254C78.6907 152.898 78.8884 152.697 79.2217 152.697C79.5549 152.697 79.749 152.898 79.749 153.254V157.586C79.749 157.93 79.5549 158.124 79.207 158.124C78.969 158.124 78.8225 158.04 78.6541 157.806L76.3616 154.594H76.3286V157.571C76.3286 157.923 76.1309 158.124 75.8013 158.124Z" fill="black"/>
<path d="M92.1789 144.502H48.7619C47.2334 144.502 45.9834 143.252 45.9834 141.724C45.9834 140.195 47.2339 138.945 48.7619 138.945H92.1789C93.7069 138.945 94.9574 140.196 94.9574 141.724C94.9574 143.252 93.7074 144.502 92.1789 144.502Z" fill="#1C1B1E"/>
<path d="M84.4154 144.477C84.2989 144.494 84.1829 144.503 84.0624 144.503H48.5139C47.1234 144.503 45.9824 143.367 45.9824 141.972V141.477C45.9824 140.086 47.1234 138.945 48.5139 138.945H83.0334L84.4154 144.477Z" fill="#B7E85E"/>
<path d="M78.8269 144.503H77.9659L76.5754 138.945H77.4364L78.8269 144.503Z" fill="#1C1B1E"/>
<path d="M80.98 144.503H80.119L78.728 138.945H79.5895L80.98 144.503Z" fill="#1C1B1E"/>
<path d="M83.1324 144.503H82.2714L80.8809 138.945H81.7419L83.1324 144.503Z" fill="#1C1B1E"/>
<path d="M62.8862 128.716C61.828 128.716 61.1654 128.018 61.1654 126.874C61.1654 125.739 61.828 125.027 62.8862 125.027C63.942 125.027 64.6046 125.739 64.6046 126.874C64.6046 127.502 64.4043 128.006 64.0359 128.31L64.2362 128.602C64.2857 128.679 64.3054 128.735 64.3054 128.812C64.3054 128.975 64.1793 129.091 64.0013 129.091C63.8802 129.091 63.8011 129.047 63.7269 128.933L63.5093 128.619C63.3189 128.683 63.1112 128.716 62.8862 128.716ZM62.8862 128.1C62.9777 128.1 63.0618 128.088 63.1409 128.065L62.9703 127.818C62.9209 127.744 62.9011 127.68 62.9011 127.618C62.9011 127.457 63.0198 127.343 63.1805 127.343C63.2843 127.343 63.356 127.38 63.4178 127.467L63.5835 127.692C63.7491 127.499 63.8431 127.217 63.8431 126.874C63.8431 126.124 63.4697 125.642 62.8862 125.642C62.3003 125.642 61.9269 126.124 61.9269 126.874C61.9269 127.62 62.3003 128.1 62.8862 128.1ZM65.4626 128.708C65.2301 128.708 65.0892 128.565 65.0892 128.32V125.477C65.0892 125.232 65.2277 125.088 65.4626 125.088H66.5504C67.3713 125.088 67.8411 125.521 67.8411 126.226C67.8411 126.671 67.621 127.052 67.2279 127.22L67.7422 128.11C67.804 128.216 67.8213 128.28 67.8213 128.367C67.8213 128.565 67.663 128.708 67.4455 128.708C67.2674 128.708 67.1859 128.644 67.0647 128.426L66.4713 127.351H65.8359V128.32C65.8359 128.565 65.6974 128.708 65.4626 128.708ZM65.8359 126.809H66.4787C66.8545 126.809 67.0746 126.594 67.0746 126.241C67.0746 125.895 66.8422 125.672 66.4713 125.672H65.8359V126.809ZM70.4841 128.713C69.6855 128.713 69.1787 128.189 69.1787 127.331C69.1787 126.483 69.683 125.949 70.4792 125.949C71.0108 125.949 71.4533 126.206 71.5967 126.582C71.6215 126.644 71.6363 126.708 71.6363 126.76C71.6363 126.938 71.4978 127.042 71.3272 127.042C71.1838 127.042 71.0973 126.985 71.0231 126.854C70.8921 126.621 70.7314 126.515 70.5014 126.515C70.1355 126.515 69.9105 126.817 69.9105 127.329C69.9105 127.85 70.1355 128.147 70.4965 128.147C70.7487 128.147 70.9044 128.023 71.0157 127.835C71.1121 127.685 71.1912 127.623 71.3445 127.623C71.5127 127.623 71.6486 127.734 71.6486 127.912C71.6486 127.969 71.6338 128.028 71.6017 128.1C71.4434 128.461 70.991 128.713 70.4841 128.713ZM73.2508 128.713C72.4497 128.713 71.9379 128.199 71.9379 127.329C71.9379 126.471 72.4571 125.949 73.2508 125.949C74.0445 125.949 74.5637 126.468 74.5637 127.329C74.5637 128.201 74.0519 128.713 73.2508 128.713ZM73.2508 128.162C73.6044 128.162 73.8294 127.863 73.8294 127.331C73.8294 126.804 73.6019 126.5 73.2508 126.5C72.8997 126.5 72.6698 126.804 72.6698 127.331C72.6698 127.863 72.8948 128.162 73.2508 128.162ZM75.9211 128.698C75.2584 128.698 74.8406 128.174 74.8406 127.326C74.8406 126.485 75.2609 125.964 75.926 125.964C76.3092 125.964 76.6059 126.166 76.7345 126.461H76.7493V125.412C76.7493 125.165 76.9002 125.034 77.1103 125.034C77.3229 125.034 77.4713 125.165 77.4713 125.412V128.342C77.4713 128.582 77.3229 128.708 77.1128 128.708C76.9051 128.708 76.7493 128.585 76.7493 128.342V128.189H76.737C76.6208 128.486 76.329 128.698 75.9211 128.698ZM76.1658 128.117C76.5243 128.117 76.7543 127.816 76.7543 127.331C76.7543 126.849 76.5243 126.542 76.1658 126.542C75.8024 126.542 75.5799 126.846 75.5799 127.331C75.5799 127.818 75.8024 128.117 76.1658 128.117ZM79.1723 128.713C78.3441 128.713 77.857 128.201 77.857 127.343C77.857 126.49 78.354 125.949 79.1377 125.949C79.8894 125.949 80.3937 126.463 80.3937 127.183C80.3937 127.383 80.28 127.497 80.0797 127.497H78.5666V127.529C78.5666 127.922 78.804 128.179 79.1699 128.179C79.4344 128.179 79.6075 128.09 79.8028 127.86C79.8795 127.781 79.9438 127.754 80.0377 127.754C80.1935 127.754 80.3196 127.853 80.3196 128.018C80.3196 128.075 80.3023 128.135 80.2701 128.194C80.0946 128.52 79.6841 128.713 79.1723 128.713ZM78.574 127.054H79.699C79.6841 126.708 79.4616 126.483 79.1452 126.483C78.8287 126.483 78.5987 126.715 78.574 127.054Z" fill="black"/>
<path d="M90.3404 81.8047H50.5999V121.545H90.3404V81.8047Z" fill="#B7E85E"/>
<path d="M54.574 85.7812V93.5588H62.3515V85.7812H54.574ZM60.873 92.0803H56.0525V87.2598H60.873V92.0803Z" fill="#1C1B1E"/>
<path d="M59.7965 88.3359H57.127V91.0054H59.7965V88.3359Z" fill="#1C1B1E"/>
<path d="M54.574 109.719V117.496H62.3515V109.719H54.574ZM60.873 116.018H56.0525V111.197H60.873V116.018Z" fill="#1C1B1E"/>
<path d="M59.7965 112.273H57.127V114.943H59.7965V112.273Z" fill="#1C1B1E"/>
<path d="M78.5889 109.633V117.406H86.3664V109.633H78.5889ZM84.8879 115.928H80.0674V111.107H84.8879V115.928Z" fill="#1C1B1E"/>
<path d="M83.8133 112.188H81.1438V114.857H83.8133V112.188Z" fill="#1C1B1E"/>
<path d="M66.5835 97.7891V105.566H74.357V97.7891H66.5835ZM72.8825 104.088H68.058V99.2676H72.8825V104.088Z" fill="#1C1B1E"/>
<path d="M71.805 100.344H69.1355V103.013H71.805V100.344Z" fill="#1C1B1E"/>
<path d="M86.3665 85.7812H66.095V88.3343H86.3665V85.7812Z" fill="#1C1B1E"/>
<path d="M86.3662 106.053V85.7812H83.8132V106.053H86.3662Z" fill="#1C1B1E"/>
<path d="M76.825 115.508H64.54V117.408H76.825V115.508Z" fill="#1C1B1E"/>
<path d="M76.747 112.578H69.866V114.479H76.747V112.578Z" fill="#1C1B1E"/>
<path d="M56.0515 94.8516H54.574V106.904H56.0515V94.8516Z" fill="#1C1B1E"/>
<path d="M62.0515 96.4766H56.051V97.7916H62.0515V96.4766Z" fill="#1C1B1E"/>
<path d="M62.0515 101.227H56.051V103.015H62.0515V101.227Z" fill="#1C1B1E"/>
<path d="M65.5334 91.5859H63.5464V93.5729H65.5334V91.5859Z" fill="#1C1B1E"/>
<path d="M66.0949 88.3359H64.1079V90.3229H66.0949V88.3359Z" fill="#1C1B1E"/>
<path d="M70.6826 91.5859H68.6956V93.5729H70.6826V91.5859Z" fill="#1C1B1E"/>
<path d="M62.0515 97.7891H60.0645V99.7761H62.0515V97.7891Z" fill="#1C1B1E"/>
<path d="M62.0515 102.766H60.0645V104.753H62.0515V102.766Z" fill="#1C1B1E"/>
<path d="M60.0644 104.914H58.0774V106.901H60.0644V104.914Z" fill="#1C1B1E"/>
<path d="M66.527 109.719H64.54V111.706H66.527V109.719Z" fill="#1C1B1E"/>
<path d="M76.8249 109.633H74.8379V111.62H76.8249V109.633Z" fill="#1C1B1E"/>
<path d="M71.676 107.352H69.689V109.339H71.676V107.352Z" fill="#1C1B1E"/>
<path d="M72.7985 110.625H70.8115V112.612H72.7985V110.625Z" fill="#1C1B1E"/>
<path d="M68.5141 111.625H66.5271V113.612H68.5141V111.625Z" fill="#1C1B1E"/>
<path d="M65.5334 105.062H63.5464V107.049H65.5334V105.062Z" fill="#1C1B1E"/>
<path d="M65.5334 98.7812H63.5464V100.768H65.5334V98.7812Z" fill="#1C1B1E"/>
<path d="M67.5204 93.5781H65.5334V95.5651H67.5204V93.5781Z" fill="#1C1B1E"/>
<path d="M65.5334 95.4844H63.5464V97.4714H65.5334V95.4844Z" fill="#1C1B1E"/>
<path d="M83.8134 106.055H81.8264V108.042H83.8134V106.055Z" fill="#1C1B1E"/>
<path d="M81.8266 104.062H79.8396V106.049H81.8266V104.062Z" fill="#1C1B1E"/>
<path d="M79.8395 102.102H77.8525V104.089H79.8395V102.102Z" fill="#1C1B1E"/>
<path d="M77.8186 100.117H75.8315V102.104H77.8186V100.117Z" fill="#1C1B1E"/>
<path d="M77.8186 92.1641H75.8315V94.1511H77.8186V92.1641Z" fill="#1C1B1E"/>
<path d="M59.5561 94.4844H57.5691V96.4714H59.5561V94.4844Z" fill="#1C1B1E"/>
<path d="M58.038 98.7188H56.051V100.706H58.038V98.7188Z" fill="#1C1B1E"/>
<path d="M72.457 94.5703H70.47V96.5573H72.457V94.5703Z" fill="#1C1B1E"/>
<path d="M76.4316 94.5703H74.4446V96.5573H76.4316V94.5703Z" fill="#1C1B1E"/>
<path d="M74.444 94.5703H72.457V96.5573H74.444V94.5703Z" fill="#1C1B1E"/>
<path d="M73.8444 88.1953H71.8574V90.1823H73.8444V88.1953Z" fill="#1C1B1E"/>
<path d="M77.8186 88.1953H75.8315V90.1823H77.8186V88.1953Z" fill="#1C1B1E"/>
<path d="M81.7924 88.1953H79.8054V90.1823H81.7924V88.1953Z" fill="#1C1B1E"/>
<path d="M81.7924 92.1641H79.8054V94.1511H81.7924V92.1641Z" fill="#1C1B1E"/>
<path d="M81.7924 96.1406H79.8054V98.1276H81.7924V96.1406Z" fill="#1C1B1E"/>
<path d="M81.7924 100.117H79.8054V102.104H81.7924V100.117Z" fill="#1C1B1E"/>
<path d="M77.8525 104.086H75.8655V106.073H77.8525V104.086Z" fill="#1C1B1E"/>
<path d="M46.626 85.7839V77.8359H54.574" stroke="#1C1B1E" stroke-width="0.3444" stroke-miterlimit="10" stroke-linecap="round" stroke-linejoin="round"/>
<path d="M94.3145 85.7839V77.8359H86.3665" stroke="#1C1B1E" stroke-width="0.3444" stroke-miterlimit="10" stroke-linecap="round" stroke-linejoin="round"/>
<path d="M94.3145 117.578V125.526H86.3665" stroke="#1C1B1E" stroke-width="0.3444" stroke-miterlimit="10" stroke-linecap="round" stroke-linejoin="round"/>
<path d="M46.626 117.578V125.526H54.574" stroke="#1C1B1E" stroke-width="0.3444" stroke-miterlimit="10" stroke-linecap="round" stroke-linejoin="round"/>
<path d="M96.3024 96.9766H44.6394V97.7716H96.3024V96.9766Z" fill="#EA134B"/>
<path d="M57.4759 157.049C55.4259 159.954 54.3759 163.514 54.5309 167.059C59.3009 172.714 63.9109 178.894 66.5459 185.804C69.1809 192.709 69.2259 201.059 64.7909 206.974C60.5009 212.694 52.4359 215.064 45.5559 213.109C39.2509 211.314 34.2009 206.384 30.8759 200.734C29.6059 198.584 28.4909 196.334 27.5009 194.034C25.8909 190.304 24.6009 186.419 23.4859 182.519C23.3009 176.444 23.5109 168.324 24.3209 163.004C32.5809 158.154 39.7759 151.499 45.2509 143.634C46.4459 141.919 47.6109 140.099 49.3459 138.934C51.6409 137.404 54.4759 137.284 57.2709 136.984C58.9009 136.809 60.5159 136.569 62.0009 135.949C63.4309 135.349 64.6959 134.419 66.1109 133.789C67.1809 133.314 68.4109 133.029 69.5459 133.229C69.7309 133.259 69.9109 133.304 70.0859 133.369C70.2609 133.424 70.4259 133.494 70.5909 133.579C72.5409 134.594 73.0509 137.159 72.9359 139.359C72.7259 143.579 71.0609 147.709 68.2809 150.889C65.5009 154.069 61.6309 156.274 57.4759 157.049Z" fill="#FFB27D"/>
<path d="M24.3188 163C24.3188 163 28.0168 149.873 28.7748 143.134C29.5328 136.396 29.0278 123.508 31.6388 120.728C34.2498 117.949 38.5458 116.18 38.5458 116.18V151.783L32.8178 160.402L24.3188 163Z" fill="#FFB27D"/>
<path d="M23.4878 182.512C22.4853 191.876 12.9393 233.318 11.1423 238.372H64.1528C64.1528 238.372 62.3558 221.863 63.2543 219.504C74.8223 216.247 88.8613 198.647 88.8613 181.094H64.4078L23.4878 182.512Z" fill="#FFB27D"/>
<path d="M111.947 144.737C111.814 145.65 111.452 146.519 111.073 147.363C109.308 151.263 107.138 155.078 104.4 158.38C103.767 159.146 103.096 159.891 102.394 160.597V143.247C103.165 142.691 104.116 142.003 105.094 141.456C105.787 141.068 106.493 140.754 107.147 140.608C108.732 140.259 110.604 140.69 111.478 142.059C111.973 142.838 112.081 143.82 111.947 144.737Z" fill="#FFB27D"/>
<path d="M111.448 129.937C111.357 131.255 110.841 132.507 110.251 133.687C108.744 136.679 106.531 139.551 104.012 141.871C103.487 142.358 102.945 142.818 102.393 143.253V127.022C103.091 126.652 103.801 126.277 104.533 125.976C105.088 125.748 105.656 125.563 106.246 125.451C107.607 125.197 109.126 125.408 110.16 126.334C111.142 127.212 111.538 128.62 111.448 129.937Z" fill="#FFB27D"/>
<path d="M67.5857 138.874C66.1262 140.131 64.1717 140.605 62.2947 141.04C61.5027 141.225 60.6758 141.41 59.8883 141.221C58.9283 140.993 58.1617 140.226 57.7487 139.331C57.4127 138.603 57.2838 137.794 57.2708 136.984C58.9023 136.808 60.5168 136.567 62.0023 135.947C63.4318 135.348 64.6973 134.418 66.1093 133.79C67.1813 133.312 68.4127 133.028 69.5447 133.23C69.9192 135.275 69.1662 137.509 67.5857 138.874Z" fill="#FFC197"/>
<path opacity="0.2" d="M54.5307 167.055C54.3757 163.51 55.4257 159.95 57.4757 157.045C61.6307 156.27 65.5007 154.065 68.2807 150.885C70.7397 148.072 72.3237 144.516 72.8032 140.812C72.6732 141.303 72.5302 141.79 72.3577 142.27C71.0232 145.992 68.5917 148.941 65.3127 151.126C63.3262 152.449 61.1217 153.517 58.7852 154.049C57.5312 154.334 55.7902 154.835 54.4887 154.338C54.2007 154.35 53.9137 154.36 53.6307 154.359C54.3707 155.699 53.6357 157.26 53.2907 158.755C52.4157 162.515 50.6257 166.064 48.1107 168.999C51.1957 168.744 53.7357 171.16 55.6407 173.6C59.4557 178.47 62.1357 184.229 63.4057 190.285C64.1257 193.694 64.3757 197.349 63.0607 200.574C61.1057 205.369 55.8607 208.314 50.6857 208.469C45.5107 208.63 40.4957 206.375 36.4107 203.195C33.0407 200.57 30.2107 197.344 27.5007 194.029C28.4907 196.329 29.6057 198.579 30.8757 200.729C34.2007 206.379 39.2507 211.309 45.5557 213.104C52.4357 215.059 60.5007 212.689 64.7907 206.969C69.2257 201.054 69.1807 192.704 66.5457 185.799C63.9107 178.89 59.3007 172.71 54.5307 167.055Z" fill="#EFA26F"/>
<path d="M47.6108 141.781C48.7673 143.22 49.9238 144.659 51.0803 146.098" stroke="#EFA26F" stroke-width="0.3229" stroke-miterlimit="10"/>
<path d="M49.6443 140.328C50.8353 141.818 52.0268 143.308 53.2183 144.798" stroke="#EFA26F" stroke-width="0.3229" stroke-miterlimit="10"/>
<path d="M51.6024 139.091C51.5624 139.024 51.5224 138.957 51.4824 138.891C52.5954 140.286 53.7084 141.682 54.8214 143.078" stroke="#EFA26F" stroke-width="0.3229" stroke-miterlimit="10"/>
<path d="M37.4934 234.093C38.4564 229.244 39.4199 224.394 40.3829 219.545C40.6139 218.383 40.8254 217.096 40.2204 216.078C39.7439 215.275 38.8604 214.821 38.0194 214.417C37.2164 214.03 36.2974 213.645 35.4639 213.96C34.6534 214.266 34.2169 215.126 33.8579 215.914C31.0899 221.995 28.5019 228.158 26.0984 234.392" stroke="#EFA26F" stroke-width="0.3229" stroke-miterlimit="10"/>
<path d="M56.1809 234.504C55.3224 231.692 54.4634 228.879 53.6049 226.067C53.3319 225.172 53.0474 224.256 52.4744 223.516C51.8169 222.667 50.8249 222.124 49.7914 221.834C49.1414 221.651 48.4129 221.568 47.8159 221.883C47.0179 222.305 46.7154 223.274 46.4869 224.147C45.6179 227.464 44.7489 230.781 43.8799 234.097" stroke="#EFA26F" stroke-width="0.3229" stroke-miterlimit="10"/>
<path d="M68.3144 196.844C67.9604 200.096 67.2264 202.86 65.8234 205.417C64.4204 207.974 61.8049 210.18 59.2699 211.623C54.7299 214.207 48.7809 214.46 44.0319 212.605C39.2829 210.749 34.9199 206.992 32.1294 202.707" stroke="#EFA26F" stroke-width="0.3229" stroke-miterlimit="10"/>
<path d="M31.395 122.562C32.2655 122.928 33.1355 123.293 34.006 123.658" stroke="#EFA26F" stroke-width="0.3229" stroke-miterlimit="10"/>
<path d="M31.7515 121.492C32.646 121.812 33.5405 122.132 34.435 122.452" stroke="#EFA26F" stroke-width="0.3229" stroke-miterlimit="10"/>
<path d="M108.254 129.75C107.602 130.109 107.039 130.627 106.625 131.246C106.378 131.614 106.181 132.029 106.15 132.471C106.119 132.913 106.277 133.384 106.63 133.652C107.24 134.114 108.244 133.718 108.475 132.988C108.705 132.259 108.225 131.42 107.514 131.136C106.804 130.852 105.957 131.067 105.371 131.559C104.786 132.051 104.439 132.781 104.28 133.529C104.121 134.277 104.134 135.05 104.161 135.815" stroke="#EFA26F" stroke-width="0.3229" stroke-miterlimit="10"/>
<path d="M108.402 142.383C107.54 142.643 106.793 143.264 106.379 144.064C105.965 144.863 105.889 145.832 106.174 146.686C106.371 147.278 106.757 147.831 107.315 148.112C107.874 148.392 108.613 148.346 109.059 147.908C109.679 147.3 109.461 146.135 108.734 145.661C108.007 145.186 106.981 145.354 106.316 145.913C105.651 146.471 105.312 147.341 105.22 148.205C105.128 149.068 105.257 149.938 105.386 150.796" stroke="#EFA26F" stroke-width="0.3229" stroke-miterlimit="10"/>
<path d="M64.4075 181.094C66.011 184.604 67.707 188.208 68.1345 192.044C68.541 188.325 67.8475 184.565 66.4555 181.094H64.4075Z" fill="#EFA26F"/>
<path d="M81.126 181.094H64.4075L67.059 183.48L81.126 181.094Z" fill="#EFA26F"/>
<path d="M38.5464 151.781L31.4324 158.173L38.5884 146.797L38.5464 151.781Z" fill="#EFA26F"/>
<path d="M104.013 141.869C103.487 142.356 102.945 142.816 102.394 143.251V133.164L104.013 141.869Z" fill="#EFA26F"/>
<path d="M104.4 158.381C103.767 159.148 103.096 159.892 102.394 160.598V151.023L104.4 158.381Z" fill="#EFA26F"/>
</g>
<defs>
<clipPath id="clip0_6954_8921">
<rect width="224" height="224" fill="white"/>
</clipPath>
</defs>
</svg>
