<svg width="224" height="224" viewBox="0 0 224 224" fill="none" xmlns="http://www.w3.org/2000/svg">
<g clip-path="url(#clip0_6954_9091)">
<path d="M53.0059 42.3576C52.9028 42.3576 52.8046 42.3102 52.759 42.23C52.6968 42.1206 52.7572 41.9913 52.8934 41.9414C53.8801 41.5801 54.8858 41.2271 55.8823 40.892C56.0213 40.8454 56.1794 40.898 56.237 41.0088C56.2949 41.1199 56.2298 41.2475 56.0917 41.2939C55.1003 41.6272 54.1 41.9785 53.1181 42.338C53.0817 42.3513 53.0435 42.3576 53.0059 42.3576ZM47.1726 44.6728C47.0757 44.6728 46.9818 44.6309 46.9332 44.5573C46.8627 44.4511 46.9126 44.3193 47.0447 44.2626C48.001 43.853 48.9772 43.4502 49.9465 43.0654C50.081 43.0119 50.2434 43.0565 50.3097 43.1644C50.376 43.2721 50.3209 43.4028 50.1867 43.4561C49.2224 43.8388 48.2512 44.2395 47.3 44.6471C47.2593 44.6644 47.2156 44.6728 47.1726 44.6728ZM41.53 47.2748C41.439 47.2748 41.3501 47.238 41.2989 47.1712C41.2204 47.0687 41.26 46.9345 41.3876 46.8714C42.3087 46.4155 43.2519 45.9647 44.1912 45.5318C44.3209 45.4718 44.4868 45.5079 44.5612 45.6122C44.6357 45.7166 44.5908 45.8497 44.4609 45.9096C43.5266 46.3404 42.5883 46.7888 41.6719 47.2424C41.6276 47.2643 41.5785 47.2748 41.53 47.2748ZM36.0993 50.1535C36.0142 50.1535 35.9302 50.1214 35.8774 50.0612C35.7913 49.9629 35.8204 49.827 35.9427 49.7577C36.826 49.257 37.7326 48.76 38.6372 48.2805C38.7623 48.2143 38.9306 48.242 39.0128 48.3424C39.0953 48.4428 39.0609 48.5779 38.9359 48.6442C38.0359 49.1212 37.1341 49.6156 36.2555 50.1137C36.2078 50.1406 36.1534 50.1535 36.0993 50.1535ZM30.9035 53.2996C30.8245 53.2996 30.7461 53.272 30.6925 53.2187C30.5983 53.1252 30.6165 52.9879 30.7331 52.9124C31.114 52.6651 31.4974 52.4209 31.8823 52.1794C32.3543 51.8835 32.8291 51.5909 33.3071 51.3016C33.4268 51.229 33.5966 51.2485 33.6868 51.3445C33.7769 51.4406 33.753 51.5772 33.6333 51.6495C33.1579 51.9374 32.6855 52.2285 32.216 52.5229C31.8334 52.7629 31.4524 53.0055 31.0737 53.2513C31.0236 53.2838 30.9634 53.2996 30.9035 53.2996ZM26.0823 56.8062C26.0149 56.8062 25.9473 56.7861 25.8948 56.7456C25.7866 56.6623 25.783 56.5244 25.8866 56.4376C26.6099 55.8315 27.3804 55.2342 28.2424 54.6118C28.3538 54.5314 28.5253 54.5388 28.6253 54.6283C28.7254 54.7177 28.7163 54.8555 28.6049 54.9359C27.753 55.5511 26.9918 56.1408 26.278 56.739C26.2248 56.7837 26.1536 56.8062 26.0823 56.8062ZM22.086 60.9189C22.0382 60.9189 21.9899 60.9088 21.9459 60.8874C21.8177 60.8253 21.7767 60.6914 21.8542 60.5883L21.9411 60.4741C22.4699 59.7854 23.072 59.0953 23.7307 58.4224C23.8237 58.3278 23.9943 58.3117 24.1115 58.3859C24.2292 58.4604 24.2496 58.5973 24.1571 58.6919C23.5109 59.3517 22.9205 60.0283 22.4027 60.7028L22.3183 60.8138C22.2674 60.8815 22.1777 60.9189 22.086 60.9189ZM19.5836 65.7233C19.5624 65.7233 19.5409 65.7213 19.5194 65.7171C19.3739 65.6888 19.2845 65.571 19.3199 65.454C19.5734 64.615 19.922 63.7697 20.356 62.9418C20.414 62.831 20.573 62.7789 20.7111 62.8256C20.8491 62.8724 20.9139 63.0001 20.8558 63.111C20.4328 63.9175 20.0934 64.7404 19.8468 65.5568C19.8167 65.6564 19.7058 65.7233 19.5836 65.7233ZM19.267 70.911C19.1362 70.911 19.0211 70.8347 18.9996 70.7277C18.8732 70.0955 18.8091 69.4403 18.8091 68.7802C18.8091 68.547 18.817 68.3099 18.8328 68.0756C18.8409 67.9555 18.972 67.8634 19.1182 67.8698C19.2678 67.8761 19.3824 67.9788 19.3743 68.0989C19.3591 68.3256 19.3514 68.5548 19.3514 68.7802C19.3514 69.4172 19.4132 70.0492 19.535 70.6585C19.5589 70.7773 19.4582 70.8891 19.3103 70.9082C19.2958 70.9101 19.2813 70.911 19.267 70.911ZM191.603 72.3045L191.597 72.3044C190.522 72.2858 189.429 72.2761 188.35 72.2758C188.2 72.2758 188.079 72.1782 188.079 72.0578C188.079 71.9376 188.201 71.8401 188.35 71.8401C189.434 71.8405 190.531 71.8501 191.609 71.8688C191.759 71.8715 191.878 71.971 191.874 72.0913C191.871 72.2101 191.751 72.3045 191.603 72.3045ZM181.845 72.3832C181.7 72.3832 181.58 72.2916 181.574 72.1744C181.568 72.0542 181.683 71.9527 181.833 71.9477C182.915 71.9116 184.011 71.8842 185.091 71.8665C185.245 71.8642 185.365 71.9595 185.368 72.0798C185.37 72.2001 185.252 72.2996 185.102 72.302C184.026 72.3198 182.934 72.347 181.856 72.383L181.845 72.3832ZM198.104 72.5264L198.087 72.526C197.011 72.471 195.92 72.4245 194.844 72.3877C194.694 72.3826 194.577 72.281 194.584 72.1609C194.59 72.0407 194.712 71.9462 194.867 71.9524C195.946 71.9893 197.041 72.036 198.122 72.0912C198.27 72.0988 198.385 72.2023 198.375 72.3224C198.366 72.4377 198.246 72.5264 198.104 72.5264ZM175.351 72.7101C175.211 72.7101 175.092 72.6241 175.081 72.5103C175.068 72.3905 175.179 72.2852 175.329 72.2751C175.894 72.2371 176.46 72.2015 177.028 72.1684C177.544 72.1382 178.061 72.1101 178.579 72.084C178.728 72.0777 178.857 72.1677 178.866 72.2878C178.875 72.4078 178.762 72.5113 178.612 72.5189C178.097 72.5448 177.582 72.5728 177.067 72.603C176.502 72.636 175.938 72.6714 175.374 72.7093L175.351 72.7101ZM204.562 73.1355C204.544 73.1355 204.526 73.134 204.508 73.131C203.54 72.9708 202.497 72.8426 201.317 72.7393C201.169 72.7262 201.061 72.6187 201.078 72.4991C201.094 72.3794 201.231 72.2941 201.376 72.3062C202.573 72.411 203.633 72.5412 204.617 72.7043C204.764 72.7285 204.857 72.8438 204.827 72.9616C204.8 73.0646 204.687 73.1355 204.562 73.1355ZM168.877 73.24C168.742 73.24 168.625 73.1586 168.608 73.0478C168.591 72.9283 168.697 72.82 168.846 72.8058C169.943 72.701 171.033 72.6041 172.084 72.5177C172.231 72.5058 172.366 72.5926 172.381 72.7122C172.396 72.8319 172.289 72.9389 172.139 72.9512C171.09 73.0373 170.004 73.1339 168.909 73.2384C168.899 73.2395 168.889 73.24 168.877 73.24ZM162.427 73.9272C162.294 73.9272 162.179 73.849 162.159 73.7405C162.137 73.6215 162.24 73.511 162.389 73.4937C163.495 73.365 164.58 73.2437 165.614 73.1332C165.763 73.1175 165.898 73.2011 165.919 73.3204C165.938 73.4397 165.833 73.5492 165.686 73.5651C164.652 73.6754 163.57 73.7964 162.466 73.9249C162.453 73.9264 162.439 73.9272 162.427 73.9272ZM155.996 74.7229C155.864 74.7229 155.75 74.6467 155.728 74.5398C155.704 74.421 155.804 74.3091 155.953 74.29C157.023 74.1509 158.096 74.0144 159.169 73.8814C159.316 73.8627 159.455 73.9445 159.478 74.0635C159.501 74.1824 159.399 74.2936 159.25 74.3119C158.18 74.4448 157.109 74.5811 156.04 74.7201C156.025 74.722 156.01 74.7229 155.996 74.7229ZM210.614 74.9782C210.565 74.9782 210.514 74.9673 210.47 74.9446C210.011 74.713 209.532 74.501 209.045 74.3144C208.583 74.1384 208.097 73.9744 207.598 73.827C207.458 73.7855 207.385 73.6603 207.437 73.5473C207.489 73.4343 207.645 73.3764 207.785 73.4181C208.3 73.57 208.802 73.7392 209.278 73.921C209.784 74.1149 210.282 74.3353 210.758 74.5759C210.885 74.64 210.923 74.7745 210.844 74.8763C210.792 74.9421 210.704 74.9782 210.614 74.9782ZM149.576 75.5788C149.446 75.5788 149.332 75.5035 149.309 75.3971C149.285 75.2784 149.384 75.166 149.531 75.146C150.601 75.001 151.671 74.8564 152.741 74.7135C152.89 74.6938 153.028 74.774 153.052 74.8927C153.078 75.0114 152.978 75.1236 152.83 75.1433C151.76 75.2862 150.691 75.4307 149.621 75.5756C149.606 75.5777 149.591 75.5788 149.576 75.5788ZM21.6707 75.7245C21.5831 75.7245 21.4972 75.6906 21.445 75.6277C20.8178 74.8741 20.2955 74.0865 19.892 73.2867C19.8358 73.1753 19.9028 73.0481 20.0415 73.003C20.1803 72.9578 20.3384 73.0115 20.3947 73.1231C20.7841 73.8954 21.2892 74.6565 21.8959 75.3856C21.979 75.4856 21.9455 75.6209 21.8211 75.6877C21.7748 75.7127 21.7225 75.7245 21.6707 75.7245ZM143.157 76.4384C143.027 76.4384 142.913 76.3626 142.891 76.2557C142.866 76.1369 142.967 76.0249 143.114 76.0056C144.185 75.8649 145.255 75.7233 146.324 75.5801C146.472 75.5603 146.611 75.6405 146.635 75.7591C146.66 75.8779 146.56 75.9901 146.413 76.0098C145.343 76.1532 144.272 76.2949 143.202 76.4355C143.187 76.4375 143.172 76.4384 143.157 76.4384ZM136.734 77.2763C136.604 77.2763 136.489 77.2003 136.467 77.0934C136.442 76.9747 136.543 76.8627 136.692 76.8435L139.902 76.4252C140.051 76.4057 140.19 76.4867 140.214 76.6054C140.238 76.7241 140.138 76.836 139.99 76.8552L136.778 77.2734C136.763 77.2754 136.749 77.2763 136.734 77.2763ZM130.314 78.1264C130.183 78.1264 130.069 78.0512 130.046 77.9447C130.022 77.8261 130.121 77.7137 130.269 77.6938C131.339 77.5489 132.409 77.4062 133.48 77.2647C133.626 77.2449 133.767 77.3256 133.791 77.4443C133.815 77.5631 133.715 77.6751 133.567 77.6947C132.498 77.836 131.428 77.9787 130.359 78.1234C130.344 78.1254 130.329 78.1264 130.314 78.1264ZM215.025 78.7378C214.925 78.7378 214.831 78.694 214.782 78.6182C214.323 77.8882 213.703 77.1937 212.939 76.5541C212.836 76.4673 212.839 76.3294 212.947 76.2461C213.056 76.1628 213.228 76.1656 213.33 76.2526C214.132 76.9233 214.782 77.653 215.267 78.4216C215.334 78.5289 215.281 78.66 215.147 78.7142C215.108 78.7302 215.066 78.7378 215.025 78.7378ZM123.904 79.0247C123.775 79.0247 123.661 78.951 123.637 78.8458C123.611 78.7274 123.708 78.614 123.855 78.5925C124.923 78.4367 125.991 78.2844 127.06 78.1348C127.208 78.114 127.349 78.1935 127.374 78.3119C127.401 78.4305 127.301 78.5433 127.154 78.5639C126.086 78.7134 125.019 78.8655 123.952 79.0211C123.936 79.0235 123.92 79.0247 123.904 79.0247ZM26.103 79.5219C26.0435 79.5219 25.9836 79.5062 25.9335 79.474C25.0488 78.904 24.233 78.304 23.5088 77.6906C23.4058 77.6033 23.4103 77.4653 23.5191 77.3826C23.6277 77.2999 23.7992 77.3035 23.9023 77.3908C24.6097 77.9898 25.4072 78.5764 26.2727 79.1341C26.3897 79.2093 26.4083 79.3465 26.3147 79.4403C26.2611 79.494 26.1824 79.5219 26.103 79.5219ZM117.513 80.0075C117.386 80.0075 117.273 79.936 117.247 79.8327C117.218 79.7147 117.313 79.5998 117.459 79.5759C118.522 79.4031 119.588 79.2352 120.655 79.0714C120.801 79.0487 120.943 79.1265 120.972 79.2445C121 79.3627 120.903 79.4768 120.756 79.4994C119.692 79.6627 118.628 79.8304 117.566 80.003C117.549 80.006 117.53 80.0075 117.513 80.0075ZM111.152 81.1086C111.028 81.1086 110.916 81.04 110.887 80.939C110.854 80.8217 110.946 80.7049 111.092 80.6783C111.489 80.6057 111.887 80.5334 112.285 80.4616C112.946 80.3423 113.608 80.2254 114.271 80.1107C114.417 80.085 114.562 80.1601 114.593 80.2778C114.624 80.3954 114.532 80.5113 114.385 80.5366C113.725 80.651 113.064 80.7677 112.404 80.8868C112.007 80.9585 111.609 81.0307 111.213 81.1031C111.192 81.1068 111.171 81.1086 111.152 81.1086ZM104.812 82.2879C104.69 82.2879 104.578 82.2202 104.549 82.1192C104.514 82.0025 104.605 81.8848 104.751 81.8579C105.807 81.6596 106.864 81.4613 107.92 81.264C108.065 81.2369 108.212 81.3093 108.245 81.427C108.28 81.5438 108.189 81.6615 108.042 81.6883C106.987 81.8848 105.93 82.0831 104.874 82.2823C104.853 82.286 104.833 82.2879 104.812 82.2879ZM31.575 82.3379C31.5331 82.3379 31.4907 82.3305 31.451 82.3138C30.456 81.9015 29.4988 81.4613 28.6059 81.0046C28.4795 80.9401 28.4424 80.8054 28.5226 80.7039C28.6029 80.6023 28.7705 80.5724 28.8969 80.6369C29.7762 81.0864 30.7191 81.5206 31.6995 81.9265C31.8326 81.9821 31.8849 82.1137 31.8162 82.2202C31.768 82.2953 31.6732 82.3379 31.575 82.3379ZM98.4743 83.4722C98.3509 83.4722 98.239 83.4036 98.2102 83.3035C98.1768 83.1858 98.2679 83.0691 98.4144 83.0422C99.4708 82.8476 100.527 82.6502 101.582 82.4528C101.728 82.425 101.874 82.4982 101.909 82.615C101.942 82.7327 101.851 82.8494 101.706 82.8772C100.649 83.0746 99.593 83.272 98.5354 83.4666C98.5147 83.4703 98.4939 83.4722 98.4743 83.4722ZM215.699 87.2648C215.677 87.2648 215.655 87.2608 215.632 87.2509C215.487 87.1875 215.399 86.934 215.436 86.6865C215.628 85.3773 215.725 84.0662 215.725 82.7907C215.725 82.2936 215.71 81.7935 215.681 81.3057C215.666 81.0498 215.774 80.8211 215.923 80.7947C216.072 80.7678 216.204 80.9544 216.221 81.2101C216.252 81.7294 216.267 82.2619 216.268 82.7907C216.268 84.1434 216.165 85.5298 215.962 86.9122C215.931 87.1242 215.82 87.2648 215.699 87.2648ZM37.5469 84.4081C37.5163 84.4081 37.485 84.4035 37.4546 84.3951C36.4283 84.0958 35.4056 83.7715 34.4147 83.4295C34.2772 83.3823 34.2135 83.2544 34.2725 83.1432C34.3315 83.0329 34.4908 82.982 34.6286 83.0292C35.6098 83.3674 36.6229 83.689 37.6394 83.9855C37.7803 84.0263 37.8529 84.1514 37.8018 84.2645C37.7618 84.3534 37.6578 84.4081 37.5469 84.4081ZM92.123 84.6073C91.9973 84.6073 91.8854 84.5369 91.8578 84.435C91.8266 84.3173 91.9201 84.2015 92.0665 84.1764C93.1253 83.9948 94.184 83.8085 95.2427 83.6186C95.3881 83.5926 95.5334 83.6668 95.5657 83.7844C95.598 83.9012 95.5068 84.018 95.3604 84.0439C94.3005 84.2339 93.2406 84.4201 92.1795 84.6027C92.1599 84.6055 92.1415 84.6073 92.123 84.6073ZM85.7429 85.6378C85.6149 85.6378 85.5019 85.5646 85.4765 85.4599C85.45 85.3422 85.5469 85.2282 85.6933 85.206C86.7186 85.0521 87.7924 84.8844 88.8834 84.7074C89.031 84.6842 89.1729 84.7602 89.2029 84.8779C89.2328 84.9965 89.1371 85.1114 88.9906 85.1346C87.8973 85.3125 86.8213 85.4802 85.7937 85.6341C85.7764 85.6369 85.7591 85.6378 85.7429 85.6378ZM43.7727 85.9204C43.7513 85.9204 43.7295 85.9186 43.7078 85.9139C42.6453 85.7045 41.5849 85.471 40.5563 85.2217C40.4129 85.1874 40.3318 85.0651 40.3751 84.9502C40.4185 84.8353 40.5691 84.7704 40.713 84.8047C41.7327 85.0521 42.7839 85.2829 43.8372 85.4914C43.9826 85.5201 44.0716 85.6378 44.0358 85.7545C44.0054 85.8537 43.8945 85.9204 43.7727 85.9204ZM79.327 86.5088C79.1956 86.5088 79.0802 86.431 79.0595 86.3226C79.0376 86.204 79.1402 86.0928 79.2878 86.0752C80.3293 85.9501 81.4088 85.812 82.4952 85.6637C82.644 85.6443 82.7835 85.724 82.8077 85.8426C82.8331 85.9612 82.7339 86.0733 82.5863 86.0937C81.4953 86.242 80.4123 86.381 79.3674 86.5061C79.3547 86.5079 79.3409 86.5088 79.327 86.5088ZM50.1567 86.9212C50.1434 86.9212 50.1301 86.9203 50.1168 86.9194C49.0323 86.7905 47.9492 86.6423 46.8978 86.4773C46.7508 86.4551 46.6549 86.3402 46.6835 86.2225C46.712 86.1039 46.8546 86.027 47.0013 86.0501C48.0446 86.2132 49.1194 86.3606 50.1957 86.4875C50.3439 86.5051 50.4463 86.6163 50.4245 86.7349C50.4046 86.8434 50.2888 86.9212 50.1567 86.9212ZM72.8719 87.1594C72.7336 87.1594 72.6159 87.076 72.6021 86.9638C72.5871 86.8434 72.6955 86.7368 72.8454 86.7248C73.9042 86.6404 74.9894 86.5413 76.0712 86.4319C76.2189 86.4171 76.355 86.5014 76.3734 86.621C76.393 86.7405 76.2869 86.8489 76.1393 86.8647C75.0529 86.974 73.963 87.0732 72.8985 87.1584L72.8719 87.1594ZM56.6265 87.4614H56.6092C55.5165 87.4058 54.4221 87.3326 53.3563 87.2446C53.2074 87.2316 53.0991 87.1251 53.1146 87.0055C53.1299 86.886 53.2621 86.7989 53.4121 86.8109C54.4707 86.899 55.5577 86.9712 56.6434 87.0268C56.7928 87.0343 56.9063 87.1371 56.8969 87.2576C56.8879 87.3734 56.7685 87.4614 56.6265 87.4614ZM66.3811 87.5309C66.237 87.5309 66.117 87.4392 66.1112 87.3224C66.1043 87.202 66.2208 87.101 66.3707 87.0954C67.4329 87.0602 68.524 87.0111 69.6104 86.9481C69.7592 86.9397 69.8895 87.0296 69.901 87.1501C69.9114 87.2696 69.7984 87.3743 69.6496 87.3827C68.5574 87.4457 67.4618 87.4957 66.3927 87.5309H66.3811ZM62.2511 87.6014C61.4519 87.6014 60.6515 87.593 59.8695 87.5773C59.7196 87.5736 59.6008 87.4735 59.6054 87.354C59.6089 87.2335 59.7392 87.139 59.8834 87.1418C60.9456 87.1631 62.0412 87.1705 63.1264 87.1621H63.1299C63.2776 87.1621 63.3987 87.2585 63.4008 87.378C63.402 87.4985 63.2822 87.5967 63.1322 87.5977C62.838 87.6004 62.544 87.6014 62.2511 87.6014ZM212.509 96.8664C212.442 96.8664 212.375 96.8229 212.322 96.7377C212.214 96.5614 212.209 96.2663 212.313 96.0801C212.408 95.9098 212.501 95.7355 212.592 95.5612C213.22 94.367 213.77 93.0737 214.229 91.715C214.304 91.4932 214.469 91.416 214.599 91.5447C214.728 91.6734 214.773 91.9587 214.698 92.1825C214.221 93.5966 213.647 94.9433 212.996 96.1851C212.9 96.3653 212.803 96.5456 212.706 96.7218C212.652 96.8169 212.581 96.8664 212.509 96.8664ZM207.335 103.576C207.241 103.576 207.151 103.493 207.1 103.343C207.025 103.121 207.07 102.836 207.199 102.707C208.22 101.697 209.105 100.715 209.903 99.7006C210.023 99.5461 210.193 99.5896 210.282 99.7976C210.371 100.004 210.346 100.295 210.226 100.449C209.41 101.483 208.509 102.487 207.47 103.515C207.428 103.557 207.382 103.576 207.335 103.576ZM201.523 108.593C201.42 108.593 201.321 108.492 201.276 108.32C201.215 108.084 201.275 107.809 201.412 107.704C202.395 106.945 203.38 106.141 204.341 105.317C204.475 105.202 204.638 105.296 204.705 105.525C204.772 105.757 204.717 106.036 204.584 106.151C203.616 106.981 202.623 107.789 201.635 108.554C201.598 108.581 201.561 108.593 201.523 108.593ZM195.489 112.768C195.378 112.768 195.273 112.649 195.234 112.459C195.183 112.218 195.257 111.95 195.397 111.865C196.412 111.241 197.433 110.576 198.428 109.886C198.568 109.791 198.726 109.906 198.781 110.144C198.838 110.384 198.77 110.655 198.631 110.75C197.629 111.443 196.602 112.115 195.58 112.74C195.55 112.76 195.52 112.768 195.489 112.768ZM189.281 116.113C189.163 116.113 189.053 115.977 189.02 115.769C188.98 115.521 189.066 115.266 189.211 115.198C190.249 114.713 191.296 114.188 192.323 113.636C192.466 113.558 192.618 113.695 192.663 113.941C192.708 114.184 192.628 114.446 192.485 114.523C191.452 115.079 190.398 115.61 189.353 116.095C189.329 116.107 189.306 116.113 189.281 116.113ZM182.942 118.615C182.814 118.615 182.7 118.46 182.675 118.236C182.648 117.983 182.744 117.739 182.891 117.692C183.949 117.349 185.017 116.965 186.065 116.551C186.211 116.494 186.357 116.65 186.39 116.9C186.424 117.151 186.332 117.401 186.187 117.458C185.131 117.874 184.056 118.26 182.992 118.607C182.975 118.613 182.958 118.615 182.942 118.615ZM179.366 119.641C179.234 119.641 179.117 119.474 179.098 119.243C179.076 118.987 179.178 118.751 179.327 118.714L179.694 118.621C179.843 118.583 179.98 118.759 180.002 119.013C180.024 119.268 179.922 119.504 179.774 119.542L179.406 119.635C179.392 119.639 179.379 119.641 179.366 119.641Z" fill="#1C1E1F"/>
<path d="M186.316 101.11C186.316 111.033 173.588 120.35 173.588 120.35C173.588 120.35 160.861 111.033 160.861 101.11C160.861 94.7847 166.56 89.6562 173.588 89.6562C180.618 89.6562 186.316 94.7847 186.316 101.11Z" fill="#9CD36E"/>
<path d="M180.176 101.081C180.176 104.349 177.232 106.998 173.6 106.998C169.969 106.998 167.026 104.349 167.026 101.081C167.026 97.8134 169.969 95.1641 173.6 95.1641C177.232 95.1641 180.176 97.8134 180.176 101.081Z" fill="white"/>
<path d="M173.603 90.0224C166.813 90.0224 161.288 94.9947 161.288 101.106C161.288 109.956 171.804 118.467 173.603 119.859C175.404 118.467 185.92 109.956 185.92 101.106C185.92 94.9947 180.395 90.0224 173.603 90.0224ZM173.603 120.716C173.512 120.716 173.419 120.689 173.344 120.632C172.818 120.247 160.465 111.09 160.465 101.106C160.465 94.5847 166.359 89.2812 173.603 89.2812C180.848 89.2812 186.743 94.5847 186.743 101.106C186.743 111.09 174.39 120.247 173.864 120.632C173.789 120.689 173.696 120.716 173.603 120.716Z" fill="#1C1E1F"/>
<path d="M173.606 95.5381C170.208 95.5381 167.443 98.0266 167.443 101.084C167.443 104.142 170.208 106.631 173.606 106.631C177.005 106.631 179.77 104.142 179.77 101.084C179.77 98.0266 177.005 95.5381 173.606 95.5381ZM173.606 107.372C169.755 107.372 166.62 104.552 166.62 101.084C166.62 97.6166 169.755 94.7969 173.606 94.7969C177.459 94.7969 180.594 97.6166 180.594 101.084C180.594 104.552 177.459 107.372 173.606 107.372Z" fill="#1C1E1F"/>
<path d="M77.2863 19.7319C77.2863 31.4794 62.2188 42.5085 62.2188 42.5085C62.2188 42.5085 47.1521 31.4794 47.1521 19.7319C47.1521 12.2429 53.8977 6.17188 62.2188 6.17188C70.5402 6.17188 77.2863 12.2429 77.2863 19.7319Z" fill="#9CD36E"/>
<path d="M62.1963 6.53838C54.1155 6.53838 47.5415 12.455 47.5415 19.7277C47.5415 30.3224 60.2082 40.49 62.1963 42.0197C64.184 40.4893 76.8502 30.3175 76.8502 19.7277C76.8502 12.455 70.2776 6.53838 62.1963 6.53838ZM62.1963 42.875C62.1041 42.875 62.012 42.8474 61.9364 42.7919C61.3149 42.337 46.7178 31.516 46.7178 19.7277C46.7178 12.0462 53.6613 5.79688 62.1963 5.79688C70.7314 5.79688 77.6753 12.0462 77.6753 19.7277C77.6753 31.516 63.0777 42.337 62.4561 42.7919C62.3804 42.8474 62.2883 42.875 62.1963 42.875Z" fill="#1C1E1F"/>
<path d="M65.1591 14.3815C66.8076 14.3815 68.1439 15.5842 68.1438 17.0678L68.1446 22.4019C68.1446 23.8854 66.8081 25.088 65.1598 25.0882H59.2323C57.5839 25.0881 56.2475 23.8855 56.2475 22.4019L56.2482 17.0678C56.2482 15.5842 57.5845 14.3815 59.233 14.3815H65.1591Z" fill="white" stroke="#1C1E1F" stroke-width="0.84583"/>
<path d="M126.027 75.9982C125.51 76.0157 124.992 75.9565 124.487 75.8257C122.303 75.2426 120.513 73.494 118.27 73.2266C115.713 72.9233 113.381 74.6244 111.442 76.3197C109.503 78.0208 107.439 79.9126 104.875 80.1209C102.692 80.2992 100.64 79.2111 98.6295 78.3365C96.6252 77.4618 94.2752 76.7778 92.3008 77.73C90.4864 78.6105 89.5234 80.6389 89.0594 82.6075C88.5953 84.5702 88.4762 86.6345 87.679 88.4905C87.0243 90.0133 85.728 91.4053 84.1694 91.7736C83.3072 90.3699 81.4628 89.626 79.8216 89.9475C78.4238 90.2274 77.2283 91.1547 76.4487 92.3567L75.8422 92.1251C73.3913 90.4773 73.3614 86.272 75.7888 84.5826C72.5532 82.0843 71.3578 77.2725 73.0464 73.5488C74.7417 69.8309 79.1552 67.565 83.1639 68.368C81.4928 64.5077 82.1884 59.7368 84.895 56.5195C87.6016 53.3014 92.1875 51.7969 96.2737 52.7841C99.9616 53.6821 103.358 56.4186 107.111 55.8472C109.443 55.4841 111.382 53.8845 113.606 53.0873C118.46 51.3504 124.456 54.2111 126.157 59.077C128.637 57.37 131.743 56.4954 134.717 56.9652C137.691 57.4409 140.469 59.3503 141.712 62.0985C142.955 64.8409 142.473 68.3498 140.338 70.4732C138.203 72.5967 134.479 72.9949 132.094 71.1513C131.512 73.8922 128.793 75.939 126.027 75.9982Z" fill="#291111"/>
<path d="M124.546 107.629C123.809 111.085 122.875 114.529 121.263 117.676C119.651 120.816 117.313 123.665 114.25 125.426C114.078 125.521 113.911 125.616 113.733 125.706L114.923 131.548L115.731 135.539C115.731 135.539 113.269 143.23 103.449 143.349C93.6222 143.474 80.215 130.911 80.215 130.911L80.4233 129.769L84.581 106.851C80.6732 105.994 77.2885 103.009 75.9798 99.2251C75.3609 97.429 75.1943 95.4305 75.819 93.6395C75.9798 93.1931 76.188 92.759 76.4496 92.3608C77.2286 91.1595 78.424 90.2315 79.8219 89.9516C81.4638 89.6301 83.3074 90.374 84.1704 91.7777C85.729 91.4087 87.0253 90.0167 87.68 88.4946C88.4772 86.6386 88.5963 84.575 89.0603 82.6116C89.5243 80.643 90.4882 78.6146 92.3018 77.734C94.2769 76.7827 96.6262 77.4666 98.6305 78.3405C100.641 79.2152 102.693 80.3032 104.876 80.1249C107.439 79.9167 109.504 78.0256 111.443 76.3238C113.382 74.6285 115.714 72.9274 118.271 73.2306C120.514 73.4981 122.304 75.2474 124.488 75.8298C124.993 75.9606 125.511 76.0198 126.028 76.0023C127.247 86.5311 126.753 97.2617 124.546 107.629Z" fill="#FEA569"/>
<path d="M113.15 125.39C105.134 127.524 96.4572 124.648 91.381 118.069C90.9199 117.471 89.8859 118.063 90.3536 118.67C95.7631 125.681 104.885 128.822 113.466 126.537C114.205 126.34 113.891 125.192 113.15 125.39Z" fill="#291111"/>
<path d="M107.238 115.219C105.747 115.273 104.281 114.703 103.248 113.617C102.216 112.531 101.746 111.021 101.876 109.54C101.905 109.219 101.583 108.945 101.282 108.945C100.936 108.945 100.715 109.219 100.687 109.54C100.529 111.325 101.171 113.159 102.407 114.458C103.644 115.758 105.45 116.474 107.238 116.409C108.001 116.381 108.005 115.191 107.238 115.219Z" fill="#291111"/>
<path d="M93.8683 109.8C96.7147 109.8 99.0221 107.492 99.0221 104.646C99.0221 101.8 96.7147 99.4922 93.8683 99.4922C91.022 99.4922 88.7146 101.8 88.7146 104.646C88.7146 107.492 91.022 109.8 93.8683 109.8Z" fill="#F08238"/>
<path d="M108.117 107.101L113.518 93.1562C113.518 93.1562 115.117 107.487 114.896 109.416C114.676 111.345 108.117 107.101 108.117 107.101Z" fill="#F08238"/>
<path d="M103.721 97.9008C105.411 97.9008 106.78 96.3 106.78 94.3254C106.78 92.3508 105.411 90.75 103.721 90.75C102.032 90.75 100.663 92.3508 100.663 94.3254C100.663 96.3 102.032 97.9008 103.721 97.9008Z" fill="#291111"/>
<path d="M125.224 94.6855C125.224 96.6606 123.854 98.2616 122.165 98.2616C120.475 98.2616 119.106 96.6606 119.106 94.6855C119.106 92.7104 120.475 91.1094 122.165 91.1094C123.853 91.1101 125.224 92.7111 125.224 94.6855Z" fill="#291111"/>
<path d="M105.773 86.4494C103.365 86.3939 101.029 86.9047 98.8218 87.8465C98.504 87.9825 98.2256 88.4187 98.1386 88.7351C98.0407 89.091 98.0845 89.5652 98.2884 89.8809C98.493 90.198 98.7977 90.4778 99.177 90.5641C99.5935 90.6591 99.934 90.5801 100.323 90.4143C99.9559 90.5706 100.425 90.3756 100.494 90.3492C100.6 90.3083 100.706 90.2689 100.813 90.2301C101.062 90.1403 101.314 90.0577 101.569 89.9817C102.041 89.8407 102.519 89.723 103.003 89.6302C103.115 89.609 103.227 89.5886 103.338 89.5696C103.356 89.5667 103.447 89.552 103.528 89.5389C103.522 89.5425 103.81 89.5031 103.843 89.4994C103.957 89.4877 104.07 89.4768 104.183 89.4673C104.712 89.4234 105.243 89.411 105.772 89.4227C106.551 89.4402 107.294 88.7256 107.259 87.9357C107.224 87.1151 106.607 86.4684 105.773 86.4494Z" fill="#291111"/>
<path d="M126.692 88.3944C126.469 88.0495 126.182 87.8617 125.803 87.7112C124.163 87.0601 122.416 86.7116 120.655 86.6188C119.877 86.5779 119.134 87.332 119.168 88.1058C119.206 88.9461 119.821 89.549 120.655 89.5928C121.01 89.6118 121.363 89.6483 121.716 89.6907C122.845 89.8632 123.95 90.1576 125.012 90.5793C125.349 90.713 125.86 90.6041 126.158 90.4295C126.467 90.249 126.761 89.8953 126.841 89.5409C126.928 89.1595 126.909 88.732 126.692 88.3944Z" fill="#291111"/>
<path d="M118.146 153.152C118.117 153.164 118.093 153.17 118.069 153.17C117.094 157.06 113.328 160.825 102.306 162.491L102.259 162.461C98.8921 162.657 95.6324 161.277 92.7117 159.593C83.3907 154.216 76.104 145.401 72.5769 135.236L72.5527 135.194C74.0222 134.314 75.4551 133.392 76.8472 132.398C80.69 137.704 84.7287 142.957 89.8437 147.037C94.787 150.986 111.002 159.207 117.17 142.468C117.199 142.302 117.247 142.159 117.324 142.034C117.33 142.029 117.33 142.029 117.33 142.023C118.794 139.185 119.311 135.866 118.758 132.72C119.799 133.041 120.84 133.356 121.881 133.671C122.108 135.796 122.488 141.792 118.146 153.152Z" fill="#4F6FAA"/>
<path d="M80.215 130.906C80.215 130.906 93.6222 143.469 103.449 143.344C113.27 143.225 115.732 135.534 115.732 135.534L114.923 131.543C116.202 131.935 117.481 132.328 118.76 132.715C119.313 135.861 118.796 139.18 117.332 142.018C117.113 142.16 116.898 142.303 116.684 142.458C113.294 144.867 110.843 148.358 108.595 151.856C108.172 152.51 107.756 153.171 107.352 153.83C100.981 153.842 94.8308 151.017 89.8459 147.032C84.7301 142.952 80.6915 137.699 76.8494 132.393C78.0214 131.56 79.1628 130.681 80.2633 129.734L80.424 129.764L80.215 130.906Z" fill="#FFE2D2"/>
<path d="M180.084 205.03C179.656 208.777 177.538 212.293 174.439 214.44C171.34 216.582 167.302 217.313 163.644 216.397C159.534 215.362 156.125 212.4 153.705 208.92C153.175 208.159 152.687 207.374 152.229 206.565C155.804 234.498 157.814 262.632 158.255 290.797H56.214C56.5947 272.168 58.1949 253.561 61.0082 235.14C59.5687 234.581 58.23 233.784 57.0587 232.719C53.674 229.65 52.2469 225.034 50.9682 220.651C48.0592 210.723 45.1568 200.796 42.2478 190.868C39.4404 181.28 36.6564 170.871 40.1601 161.514C43.2058 153.377 50.51 147.613 58.0225 143.241C62.7992 140.457 67.8309 138.042 72.5542 135.187L72.5783 135.229C76.1055 145.394 83.3922 154.209 92.7132 159.586C95.6339 161.27 102.26 162.454 102.26 162.454C117.332 162.942 121.306 140.017 121.306 140.017C121.913 137.965 122.109 135.788 121.883 133.664C125.78 134.854 129.67 136.037 133.565 137.227C133.565 137.249 134.78 138.066 136.642 139.307C150.358 148.443 161.531 160.903 169.15 175.517C172.046 181.072 174.773 186.712 177.248 192.468C178.96 196.459 180.584 200.712 180.084 205.03Z" fill="#6F90D7"/>
<path d="M121.305 140.023C125.112 138.554 129.334 137.977 133.421 137.453L133.505 137.477C133.261 138.47 133.011 139.458 132.767 140.451C132.018 140.344 131.263 140.273 130.507 140.249C129.698 140.219 128.746 140.302 128.295 140.974C127.622 141.967 128.575 143.259 129.543 143.954C130.519 144.65 131.726 145.453 131.667 146.649C131.03 144.954 128.473 144.401 127.2 145.691C126.903 145.983 126.683 146.345 126.546 146.738C126.065 148.119 126.897 149.731 128.176 150.355C127.545 150.224 126.908 150.164 126.278 150.254C125.261 150.403 124.244 151.069 124.012 152.074C123.661 153.579 125.094 154.846 126.367 155.726C127.581 156.565 128.794 157.397 130.007 158.236C126.272 163.131 121.888 167.533 117.005 171.287C115.922 174.475 114.007 177.378 111.384 179.507L111.277 179.596C107.773 175.552 103.211 172.417 98.1731 170.597C99.476 167.855 100.856 165.155 102.307 162.49C103.895 159.551 105.578 156.667 107.351 153.835C107.755 153.174 108.171 152.515 108.594 151.861C110.842 148.363 113.293 144.871 116.684 142.462C116.898 142.307 117.112 142.165 117.332 142.022C118.581 141.207 119.913 140.559 121.305 140.023Z" fill="#FEA569"/>
<path d="M122.596 159.743L132.855 123.681C133.246 122.307 134.5 121.359 135.929 121.359H150.404C152.502 121.359 154.032 123.348 153.493 125.376L143.87 161.623C143.495 163.038 142.206 164.017 140.742 164L125.632 163.815C123.526 163.788 122.021 161.769 122.596 159.743Z" fill="#6E747F"/>
<path d="M125.088 159.743L135.347 123.681C135.738 122.307 136.993 121.359 138.421 121.359H152.895C154.994 121.359 156.523 123.348 155.985 125.376L146.362 161.623C145.987 163.038 144.698 164.017 143.233 164L128.123 163.814C126.018 163.788 124.512 161.769 125.088 159.743Z" fill="#8E929B"/>
<path d="M142.096 126.212C142.096 127.498 141.053 128.54 139.767 128.54C138.481 128.54 137.438 127.498 137.438 126.212C137.438 124.926 138.481 123.883 139.767 123.883C141.054 123.883 142.096 124.926 142.096 126.212Z" fill="#6E747F"/>
<path d="M157.303 172.037C152.485 173.298 147.798 175.041 143.331 177.247C140.316 175.885 137.74 173.571 136.075 170.71C134.385 167.802 133.642 164.34 133.999 160.991C132.667 160.075 131.334 159.159 130.007 158.237C128.794 157.398 127.581 156.566 126.367 155.727C125.094 154.847 123.66 153.579 124.012 152.075C124.244 151.069 125.261 150.404 126.278 150.255C126.908 150.166 127.545 150.225 128.176 150.356C126.897 149.731 126.064 148.119 126.546 146.739C126.683 146.347 126.903 145.984 127.2 145.692C128.473 144.402 130.519 144.651 129.543 143.955C128.574 143.26 127.622 141.968 128.295 140.975C128.747 140.303 129.698 140.22 130.507 140.25C131.263 140.273 132.018 140.345 132.767 140.452C135.093 140.773 137.372 141.469 139.483 142.504C137.877 140.999 136.395 139.352 135.069 137.591C134.522 136.865 133.993 135.895 134.23 135.087C134.272 134.95 134.331 134.819 134.421 134.694C135.004 133.849 136.27 133.969 137.258 134.242C142.713 135.759 147.525 139.381 150.6 144.122C151.385 140.981 152.572 138.08 153.357 134.939C153.869 135.165 153.878 135.384 154.127 135.89C154.454 136.562 154.538 137.323 154.621 138.066C155.138 142.766 155.596 147.477 155.977 152.187C156.524 158.701 156.935 165.226 157.226 171.757L157.303 172.037Z" fill="#FEA569"/>
<path d="M113.097 183.476C108.535 192.005 103.334 200.188 97.541 207.934C94.6225 211.836 91.5506 215.623 88.3405 219.289C85.1729 222.906 81.9241 226.551 78.3319 229.756C74.3042 233.347 69.2104 236.262 63.627 235.513C62.8707 235.411 62.878 236.602 63.627 236.703C68.457 237.35 73.157 235.323 76.934 232.445C80.8317 229.477 84.1623 225.731 87.43 222.102C94.0533 214.748 100.109 206.878 105.524 198.595C108.603 193.885 111.471 189.038 114.125 184.076C114.486 183.402 113.459 182.8 113.097 183.476Z" fill="#291111"/>
<path d="M114.247 183.551C111.273 176.012 104.192 170.528 96.1534 169.519C96.1096 169.513 96.0774 169.525 96.0394 169.528C95.8304 169.389 95.5513 169.363 95.3211 169.593C88.1206 176.774 80.9202 183.956 73.7204 191.138C72.1267 186.194 70.533 181.251 68.9394 176.308C68.7055 175.582 67.5561 175.893 67.7921 176.624C69.453 181.776 71.114 186.928 72.7749 192.08L67.2572 197.584C66.7143 198.126 67.5554 198.967 68.0983 198.425C75.3938 191.149 82.6885 183.872 89.984 176.596C91.9737 174.611 93.9634 172.626 95.9532 170.642C96.0138 170.672 96.0774 170.699 96.1534 170.708C103.615 171.645 110.341 176.875 113.099 183.868C113.378 184.571 114.529 184.265 114.247 183.551Z" fill="#291111"/>
<path d="M173.094 183.893C169.277 179.177 164.868 174.983 159.989 171.379C159.791 171.232 159.595 171.241 159.441 171.333C159.42 171.335 159.402 171.328 159.381 171.332C153.342 172.36 147.533 174.512 142.274 177.654C142.027 177.802 141.958 178.04 142.003 178.258C141.931 178.377 141.895 178.523 141.936 178.695C144.13 188.05 147.338 197.145 151.482 205.814C151.813 206.505 152.838 205.902 152.51 205.214C148.434 196.688 145.293 187.738 143.124 178.54C148.185 175.555 153.738 173.518 159.528 172.511C164.267 176.03 168.541 180.147 172.254 184.734C172.734 185.33 173.572 184.483 173.094 183.893Z" fill="#291111"/>
<path d="M63.3837 151.143C63.2887 150.798 63.022 150.424 62.7005 150.254C61.9464 149.856 61.1353 150.1 60.6662 150.788C59.6607 152.261 58.6552 153.734 57.6498 155.208C57.4415 155.513 57.4043 156.007 57.5 156.353C57.595 156.698 57.8617 157.072 58.1832 157.242C58.9373 157.64 59.7484 157.396 60.2175 156.708C61.223 155.235 62.2284 153.762 63.2339 152.288C63.4429 151.983 63.4794 151.489 63.3837 151.143Z" fill="#4F6FAA"/>
<path d="M56.9841 165.724C55.6344 164.391 54.2848 163.059 52.9352 161.725C52.3813 161.178 51.378 161.131 50.8322 161.725C50.29 162.315 50.241 163.244 50.8322 163.828C52.1818 165.161 53.5314 166.494 54.8811 167.827C55.435 168.375 56.4382 168.421 56.9841 167.827C57.5263 167.237 57.5752 166.309 56.9841 165.724Z" fill="#4F6FAA"/>
<path d="M69.9946 160.577C69.711 160.317 69.3391 160.124 68.9431 160.142C68.5287 160.16 68.2094 160.313 67.8916 160.577C66.2175 161.971 64.5434 163.365 62.8693 164.758C62.5924 164.989 62.4338 165.464 62.4338 165.81C62.4338 166.175 62.5961 166.61 62.8693 166.861C63.1529 167.122 63.5248 167.314 63.9208 167.297C64.3352 167.279 64.6545 167.126 64.9723 166.861C66.6464 165.468 68.3205 164.074 69.9946 162.68C70.2715 162.449 70.4301 161.975 70.4301 161.629C70.4301 161.264 70.2686 160.829 69.9946 160.577Z" fill="#4F6FAA"/>
<path d="M77.4713 157.692C76.2978 156.294 75.1235 154.896 73.95 153.498C73.7176 153.221 73.2463 153.062 72.8985 153.062C72.5339 153.062 72.0984 153.225 71.847 153.498C71.5869 153.782 71.394 154.153 71.4115 154.55C71.4298 154.963 71.581 155.285 71.847 155.601C73.0205 156.999 74.1948 158.397 75.3683 159.795C75.6007 160.072 76.072 160.231 76.4198 160.231C76.7845 160.231 77.22 160.069 77.4713 159.795C77.7315 159.512 77.9244 159.14 77.9068 158.744C77.8886 158.33 77.7373 158.009 77.4713 157.692Z" fill="#4F6FAA"/>
<path d="M76.3415 167.938C75.5845 167.766 74.6974 168.165 74.5125 168.976C74.0726 170.902 73.6327 172.826 73.1928 174.752C73.0197 175.509 73.4245 176.397 74.2312 176.581C74.9882 176.753 75.8753 176.354 76.0602 175.543C76.5001 173.617 76.94 171.692 77.3798 169.767C77.553 169.011 77.1482 168.121 76.3415 167.938Z" fill="#4F6FAA"/>
<path d="M91.8005 165.829C91.5484 165.05 90.779 164.585 89.9715 164.791C88.3566 165.202 86.741 165.613 85.1261 166.024C84.372 166.216 83.8437 167.099 84.0878 167.853C84.3399 168.632 85.1093 169.097 85.9168 168.891C87.5317 168.48 89.1473 168.069 90.7621 167.658C91.5162 167.467 92.0446 166.583 91.8005 165.829Z" fill="#4F6FAA"/>
<path d="M83.7911 174.868C83.2423 174.363 82.2193 174.229 81.6881 174.868C80.3443 176.482 79.0005 178.097 77.6567 179.711C77.398 180.022 77.2212 180.345 77.2212 180.763C77.2212 181.128 77.3834 181.563 77.6567 181.814C78.2055 182.319 79.2285 182.453 79.7597 181.814C81.1035 180.2 82.4473 178.585 83.7911 176.971C84.0497 176.66 84.2266 176.337 84.2266 175.919C84.2266 175.554 84.0651 175.119 83.7911 174.868Z" fill="#4F6FAA"/>
<path d="M46.1329 177.256L44.9937 169.922C44.8739 169.151 43.8677 168.656 43.1647 168.884C42.3259 169.155 41.9978 169.886 42.1264 170.713C42.5064 173.157 42.8856 175.602 43.2656 178.046C43.3854 178.817 44.3916 179.313 45.0945 179.085C45.9334 178.814 46.2615 178.082 46.1329 177.256Z" fill="#4F6FAA"/>
<path d="M61.2229 175.832C60.639 175.296 59.6957 175.233 59.1199 175.832C57.3362 177.687 55.5525 179.541 53.7688 181.395C53.2288 181.957 53.1689 182.948 53.7688 183.498C54.3527 184.035 55.296 184.098 55.8718 183.498C57.6555 181.644 59.4392 179.79 61.2221 177.935C61.7629 177.374 61.8228 176.383 61.2229 175.832Z" fill="#4F6FAA"/>
<path d="M72.1594 147.347C70.6548 146.059 69.1503 144.771 67.6457 143.482C67.3418 143.222 67.0064 143.047 66.5942 143.047C66.2296 143.047 65.7941 143.209 65.5427 143.482C65.0327 144.038 64.9114 145.045 65.5427 145.585C67.0473 146.874 68.5518 148.162 70.0564 149.451C70.3603 149.711 70.6957 149.886 71.1079 149.886C71.4725 149.886 71.908 149.724 72.1594 149.451C72.6694 148.895 72.79 147.888 72.1594 147.347Z" fill="#4F6FAA"/>
<path d="M51.7064 193.264C50.5679 191.702 49.4295 190.139 48.291 188.577C48.0565 188.255 47.8 188.003 47.4025 187.894C47.0466 187.796 46.5724 187.84 46.2567 188.044C45.9396 188.248 45.6597 188.553 45.5735 188.932C45.4902 189.3 45.4916 189.76 45.7233 190.078C46.8617 191.64 48.0002 193.202 49.1386 194.765C49.3732 195.087 49.629 195.338 50.0272 195.448C50.3831 195.546 50.8573 195.501 51.173 195.298C51.4901 195.094 51.77 194.789 51.8562 194.41C51.9395 194.042 51.938 193.582 51.7064 193.264Z" fill="#4F6FAA"/>
<path d="M65.5656 188.828C63.0125 188.53 60.4587 188.234 57.9055 187.936C57.1302 187.846 56.3856 188.685 56.4185 189.423C56.458 190.306 57.0747 190.814 57.9055 190.91C60.4587 191.208 63.0125 191.504 65.5656 191.802C66.3409 191.892 67.0855 191.054 67.0526 190.315C67.0132 189.432 66.3965 188.924 65.5656 188.828Z" fill="#4F6FAA"/>
<path d="M59.0308 197.596C58.2438 197.417 57.4232 197.832 57.2018 198.634C56.7071 200.422 56.2132 202.21 55.7185 203.998C55.511 204.747 55.9742 205.648 56.7568 205.827C57.5438 206.006 58.3644 205.591 58.5858 204.788C59.0805 203 59.5745 201.213 60.0692 199.425C60.2767 198.676 59.8134 197.773 59.0308 197.596Z" fill="#4F6FAA"/>
<path d="M58.1757 217.98C57.0387 216.216 55.901 214.45 54.764 212.685C54.3431 212.032 53.4246 211.703 52.7296 212.152C52.0764 212.573 51.7454 213.487 52.1962 214.186C53.3332 215.951 54.4709 217.716 55.6079 219.481C56.0288 220.134 56.9473 220.463 57.6422 220.015C58.2948 219.594 58.6265 218.68 58.1757 217.98Z" fill="#4F6FAA"/>
<path d="M71.1972 210.612C70.6009 210.065 69.6853 210.027 69.0942 210.612C67.5524 212.139 66.0098 213.664 64.468 215.191C63.9141 215.739 63.8783 216.752 64.468 217.294C65.0643 217.841 65.9799 217.878 66.571 217.294C68.1128 215.767 69.6554 214.242 71.1972 212.715C71.7511 212.167 71.7869 211.154 71.1972 210.612Z" fill="#4F6FAA"/>
<path d="M79.1161 205.822C77.3113 204.987 75.5057 204.152 73.7008 203.317C73.3296 203.145 72.9635 203.054 72.555 203.167C72.2101 203.262 71.836 203.529 71.6665 203.85C71.3201 204.506 71.4466 205.536 72.1999 205.884C74.0048 206.72 75.8104 207.555 77.6152 208.39C77.9865 208.562 78.3525 208.652 78.761 208.54C79.1059 208.445 79.48 208.178 79.6496 207.857C79.9959 207.201 79.8702 206.171 79.1161 205.822Z" fill="#4F6FAA"/>
<path d="M77.5049 224.98C77.1168 222.5 76.7296 220.019 76.3416 217.539C76.221 216.769 75.2163 216.273 74.5126 216.501C73.6744 216.772 73.3449 217.504 73.4742 218.33C73.8622 220.81 74.2495 223.29 74.6375 225.77C74.7581 226.541 75.7628 227.037 76.4665 226.809C77.3046 226.537 77.6342 225.805 77.5049 224.98Z" fill="#4F6FAA"/>
<path d="M92.7284 208.02C92.3324 207.405 91.3605 206.988 90.6941 207.487C88.5604 209.082 86.4267 210.677 84.293 212.271C83.9715 212.512 83.7201 212.757 83.6098 213.16C83.5119 213.516 83.5557 213.99 83.7596 214.306C84.1557 214.92 85.1275 215.337 85.7939 214.839C87.9276 213.244 90.0613 211.649 92.195 210.054C92.5165 209.814 92.7679 209.568 92.8782 209.166C92.9761 208.81 92.9315 208.336 92.7284 208.02Z" fill="#4F6FAA"/>
<path d="M91.6545 193.155C90.9282 192.989 89.9724 193.375 89.8255 194.193C89.4441 196.316 89.0619 198.439 88.6805 200.562C88.5431 201.324 88.8873 202.201 89.7188 202.391C90.4452 202.556 91.401 202.171 91.5478 201.352C91.9293 199.229 92.3114 197.107 92.6929 194.984C92.8302 194.221 92.4861 193.344 91.6545 193.155Z" fill="#4F6FAA"/>
<path d="M87.2165 185.762C86.5625 185.161 85.7719 185.25 85.1135 185.762C82.8512 187.523 80.5889 189.283 78.3266 191.044C78.0475 191.261 77.8911 191.761 77.8911 192.096C77.8911 192.46 78.0533 192.896 78.3266 193.147C78.9806 193.748 79.7712 193.659 80.4296 193.147C82.6919 191.387 84.9542 189.626 87.2165 187.865C87.4956 187.648 87.652 187.148 87.652 186.813C87.652 186.449 87.4898 186.013 87.2165 185.762Z" fill="#4F6FAA"/>
<path d="M94.3843 177.679C94.1263 177.421 93.7032 177.226 93.3328 177.243C92.4588 177.283 91.932 177.899 91.8458 178.73C91.6521 180.604 91.4585 182.478 91.2641 184.352C91.2276 184.708 91.4563 185.161 91.6996 185.404C91.9576 185.662 92.3807 185.856 92.7511 185.839C93.6251 185.8 94.1519 185.184 94.2381 184.352C94.4318 182.479 94.6254 180.604 94.819 178.73C94.857 178.374 94.6276 177.921 94.3843 177.679Z" fill="#4F6FAA"/>
<path d="M103.409 190.929C102.974 190.254 102.092 189.972 101.375 190.395C99.7462 191.355 98.1181 192.316 96.4894 193.276C95.8193 193.672 95.5197 194.634 95.9559 195.311C96.3907 195.985 97.2734 196.267 97.9903 195.844C99.619 194.884 101.247 193.923 102.876 192.963C103.546 192.568 103.845 191.605 103.409 190.929Z" fill="#4F6FAA"/>
<path d="M106.644 185.174C106.073 183.05 105.501 180.926 104.929 178.802C104.727 178.051 103.861 177.518 103.1 177.764C102.33 178.013 101.845 178.788 102.062 179.593C102.633 181.717 103.205 183.841 103.777 185.965C103.979 186.716 104.845 187.249 105.606 187.003C106.376 186.754 106.861 185.979 106.644 185.174Z" fill="#4F6FAA"/>
<path d="M137.341 188.69C137.246 188.345 136.979 187.97 136.658 187.801C135.904 187.403 135.093 187.647 134.623 188.334C133.618 189.808 132.613 191.281 131.607 192.754C131.399 193.06 131.362 193.554 131.457 193.9C131.552 194.245 131.819 194.619 132.14 194.789C132.895 195.187 133.706 194.943 134.175 194.255C135.18 192.782 136.186 191.308 137.191 189.835C137.4 189.53 137.437 189.036 137.341 188.69Z" fill="#4F6FAA"/>
<path d="M130.941 203.271C129.591 201.938 128.242 200.606 126.892 199.272C126.338 198.725 125.335 198.678 124.789 199.272C124.247 199.862 124.198 200.791 124.789 201.375C126.139 202.708 127.488 204.041 128.838 205.374C129.392 205.921 130.395 205.968 130.941 205.374C131.483 204.783 131.532 203.855 130.941 203.271Z" fill="#4F6FAA"/>
<path d="M143.952 198.116C143.668 197.856 143.296 197.663 142.9 197.681C142.486 197.699 142.166 197.852 141.849 198.116C140.175 199.51 138.5 200.904 136.826 202.297C136.549 202.528 136.391 203.003 136.391 203.349C136.391 203.714 136.553 204.149 136.826 204.4C137.11 204.661 137.482 204.853 137.878 204.836C138.292 204.818 138.612 204.665 138.929 204.4C140.603 203.007 142.278 201.613 143.952 200.219C144.229 199.988 144.387 199.514 144.387 199.168C144.387 198.803 144.226 198.368 143.952 198.116Z" fill="#4F6FAA"/>
<path d="M110.343 209.645C109.17 208.248 107.995 206.849 106.822 205.451C106.589 205.174 106.118 205.016 105.77 205.016C105.406 205.016 104.97 205.178 104.719 205.451C104.459 205.735 104.266 206.107 104.283 206.503C104.302 206.916 104.453 207.238 104.719 207.554C105.892 208.952 107.066 210.351 108.24 211.748C108.473 212.025 108.944 212.184 109.292 212.184C109.656 212.184 110.092 212.022 110.343 211.748C110.603 211.465 110.796 211.093 110.779 210.697C110.76 210.283 110.608 209.962 110.343 209.645Z" fill="#4F6FAA"/>
<path d="M147.601 210.735C146.844 210.562 145.957 210.962 145.772 211.773C145.332 213.699 144.892 215.623 144.452 217.549C144.279 218.306 144.684 219.194 145.49 219.378C146.247 219.55 147.135 219.151 147.319 218.339C147.759 216.414 148.199 214.489 148.639 212.564C148.812 211.807 148.407 210.918 147.601 210.735Z" fill="#4F6FAA"/>
<path d="M123.336 187.447C123.084 186.668 122.314 186.202 121.507 186.408C119.892 186.82 118.277 187.23 116.662 187.641C115.907 187.833 115.379 188.717 115.623 189.47C115.875 190.249 116.645 190.714 117.452 190.508C119.067 190.097 120.683 189.686 122.298 189.276C123.051 189.083 123.58 188.201 123.336 187.447Z" fill="#4F6FAA"/>
<path d="M120.091 214.803L118.952 207.469C118.832 206.698 117.826 206.203 117.123 206.431C116.284 206.703 115.956 207.433 116.084 208.26C116.464 210.704 116.844 213.149 117.224 215.593C117.343 216.364 118.35 216.86 119.053 216.632C119.891 216.36 120.219 215.629 120.091 214.803Z" fill="#4F6FAA"/>
<path d="M135.18 213.371C134.596 212.835 133.653 212.772 133.077 213.371C131.293 215.226 129.51 217.08 127.727 218.934C127.188 219.496 127.127 220.487 127.727 221.037C128.311 221.574 129.254 221.637 129.83 221.037C131.613 219.183 133.397 217.329 135.18 215.474C135.72 214.913 135.78 213.922 135.18 213.371Z" fill="#4F6FAA"/>
<path d="M117.704 198.66C116.2 197.371 114.695 196.083 113.191 194.795C112.887 194.535 112.551 194.359 112.139 194.359C111.775 194.359 111.339 194.522 111.088 194.795C110.578 195.351 110.456 196.358 111.088 196.898C112.592 198.186 114.097 199.474 115.601 200.763C115.905 201.024 116.241 201.199 116.653 201.199C117.017 201.199 117.453 201.037 117.704 200.763C118.214 200.207 118.335 199.2 117.704 198.66Z" fill="#4F6FAA"/>
<path d="M103.758 216.069C103.5 215.811 103.077 215.617 102.707 215.634C101.833 215.673 101.306 216.289 101.22 217.121C101.026 218.994 100.832 220.869 100.639 222.743C100.602 223.099 100.831 223.551 101.074 223.794C101.332 224.052 101.755 224.247 102.126 224.23C103 224.191 103.526 223.575 103.613 222.743C103.806 220.869 104 218.995 104.194 217.121C104.23 216.764 104.001 216.312 103.758 216.069Z" fill="#4F6FAA"/>
<path d="M129.58 185.735C129.112 183.971 128.644 182.207 128.176 180.443C127.976 179.691 127.106 179.158 126.347 179.405C125.574 179.654 125.094 180.428 125.308 181.234C125.777 182.997 126.244 184.761 126.713 186.525C126.912 187.277 127.782 187.81 128.542 187.564C129.314 187.314 129.793 186.54 129.58 185.735Z" fill="#4F6FAA"/>
<path d="M131.513 171.581C131.29 170.891 130.453 170.224 129.684 170.543C127.617 171.397 125.549 172.25 123.482 173.104C123.108 173.258 122.806 173.424 122.594 173.787C122.407 174.106 122.328 174.576 122.444 174.933C122.667 175.623 123.503 176.289 124.273 175.971C126.34 175.117 128.407 174.264 130.474 173.41C130.849 173.256 131.15 173.09 131.363 172.727C131.549 172.408 131.628 171.938 131.513 171.581Z" fill="#4F6FAA"/>
<path d="M140.788 183.266C140.044 181.695 139.3 180.124 138.555 178.554C138.404 178.233 137.996 177.961 137.667 177.87C137.311 177.772 136.837 177.816 136.521 178.02C136.203 178.225 135.924 178.529 135.838 178.909C135.744 179.318 135.808 179.676 135.987 180.054C136.731 181.625 137.475 183.196 138.22 184.768C138.371 185.088 138.779 185.36 139.108 185.451C139.464 185.549 139.938 185.505 140.254 185.301C140.572 185.096 140.851 184.792 140.937 184.412C141.031 184.002 140.967 183.644 140.788 183.266Z" fill="#4F6FAA"/>
<path d="M151.862 182.504C151.792 181.731 151.227 180.979 150.375 181.017C149.629 181.051 148.814 181.675 148.888 182.504C149.067 184.517 149.247 186.53 149.427 188.543C149.496 189.315 150.061 190.068 150.914 190.03C151.66 189.996 152.475 189.372 152.401 188.543C152.221 186.53 152.041 184.517 151.862 182.504Z" fill="#4F6FAA"/>
<path d="M165.313 179.672C165.052 178.868 164.3 178.459 163.484 178.633C161.776 178.997 160.068 179.36 158.361 179.724C157.599 179.887 157.085 180.82 157.323 181.553C157.583 182.357 158.336 182.766 159.152 182.592C160.86 182.228 162.567 181.865 164.274 181.501C165.036 181.338 165.549 180.405 165.313 179.672Z" fill="#4F6FAA"/>
<path d="M159.698 187.785C159.666 187.385 159.553 187.025 159.262 186.733C159.004 186.475 158.581 186.281 158.211 186.298C157.826 186.315 157.427 186.442 157.159 186.733C156.905 187.011 156.692 187.395 156.724 187.785C156.834 189.163 156.944 190.541 157.055 191.919C157.087 192.318 157.199 192.678 157.49 192.97C157.748 193.228 158.171 193.422 158.542 193.406C158.926 193.388 159.325 193.262 159.593 192.97C159.848 192.692 160.06 192.309 160.029 191.919C159.918 190.541 159.808 189.163 159.698 187.785Z" fill="#4F6FAA"/>
<path d="M160.54 198.93C159.272 198.572 158.004 198.213 156.736 197.855C155.988 197.644 155.085 198.115 154.907 198.894C154.728 199.684 155.145 200.497 155.946 200.723C157.213 201.081 158.481 201.439 159.749 201.797C160.497 202.009 161.4 201.538 161.578 200.759C161.759 199.969 161.341 199.157 160.54 198.93Z" fill="#4F6FAA"/>
<path d="M175.388 199.693C175.208 199.384 174.854 199.09 174.5 199.009C174.119 198.922 173.692 198.941 173.354 199.159C173.01 199.381 172.819 199.668 172.671 200.048C172.092 201.536 171.513 203.024 170.935 204.512C170.803 204.851 170.908 205.358 171.085 205.658C171.265 205.966 171.619 206.261 171.973 206.341C172.354 206.428 172.781 206.409 173.119 206.192C173.463 205.97 173.654 205.683 173.802 205.303C174.381 203.815 174.96 202.327 175.538 200.838C175.671 200.501 175.565 199.994 175.388 199.693Z" fill="#4F6FAA"/>
<path d="M170.607 190.674C170.427 190.366 170.073 190.071 169.719 189.991C168.986 189.824 168.045 190.212 167.89 191.029C167.56 192.766 167.23 194.503 166.9 196.239C166.824 196.637 166.839 197.025 167.049 197.384C167.23 197.693 167.584 197.987 167.938 198.068C168.671 198.234 169.612 197.846 169.767 197.029C170.097 195.293 170.428 193.557 170.757 191.82C170.833 191.422 170.819 191.035 170.607 190.674Z" fill="#4F6FAA"/>
<path d="M167.121 205.176C166.878 204.425 166.089 203.895 165.292 204.137C163.473 204.689 161.654 205.241 159.836 205.792C159.092 206.018 158.545 206.844 158.797 207.621C159.04 208.372 159.829 208.902 160.626 208.66C162.445 208.108 164.264 207.556 166.083 207.005C166.826 206.78 167.373 205.954 167.121 205.176Z" fill="#4F6FAA"/>
<path d="M169.952 209.699C169.772 209.39 169.418 209.096 169.064 209.016C168.316 208.845 167.408 209.241 167.235 210.054C166.954 211.376 166.672 212.697 166.391 214.019C166.308 214.41 166.335 214.812 166.541 215.165C166.721 215.473 167.075 215.767 167.429 215.848C168.177 216.018 169.085 215.623 169.258 214.809C169.54 213.487 169.821 212.166 170.102 210.844C170.186 210.454 170.159 210.052 169.952 209.699Z" fill="#4F6FAA"/>
<path d="M138.962 157.447C136.023 155.205 133.083 152.963 130.144 150.721C129.887 150.524 129.481 150.683 129.33 150.934C129.148 151.238 129.289 151.554 129.544 151.748C132.482 153.99 135.422 156.233 138.361 158.475C138.618 158.671 139.025 158.513 139.175 158.261C139.357 157.957 139.216 157.641 138.962 157.447Z" fill="#291111"/>
<path d="M142.398 152.969C139.035 149.758 135.371 146.869 131.464 144.347C130.818 143.931 130.221 144.96 130.863 145.375C134.688 147.844 138.264 150.667 141.557 153.811C142.111 154.339 142.953 153.499 142.398 152.969Z" fill="#291111"/>
<path d="M146.263 147.555C144.584 145.424 142.486 143.635 140.123 142.301C139.456 141.924 138.856 142.951 139.523 143.328C141.805 144.616 143.8 146.338 145.422 148.396C145.62 148.649 146.055 148.604 146.263 148.396C146.512 148.147 146.462 147.809 146.263 147.555Z" fill="#291111"/>
</g>
<defs>
<clipPath id="clip0_6954_9091">
<rect width="224" height="224" fill="white"/>
</clipPath>
</defs>
</svg>
